<svg xmlns="http://www.w3.org/2000/svg" fill="none" viewBox="0 0 123 34" height="34" width="123">
<g clip-path="url(#clip0_13_27632)">
<path fill="white" d="M13.0632 0.17009C5.87842 0.17009 0 6.04849 0 13.2332C0 20.418 5.87842 26.2964 13.0632 26.2964C20.2479 26.2964 26.1263 20.4543 26.1263 13.2332C26.1263 6.01221 20.2842 0.17009 13.0632 0.17009ZM13.0632 21.6154C8.59991 21.6154 5.00754 17.9505 5.00754 13.2332C5.00754 8.51598 8.59991 4.85104 13.0632 4.85104C17.5264 4.85104 21.1188 8.51598 21.1188 13.2332C21.1188 17.9505 17.5264 21.6154 13.0632 21.6154Z"></path>
<path fill="white" d="M39.3343 7.42738C36.9757 7.42738 34.6896 8.37083 33.4922 9.96744V7.79025H28.7749V33.1908H33.4922V24.0103C34.6896 25.4981 36.9031 26.2964 39.3343 26.2964C44.4143 26.2964 48.4058 22.3049 48.4058 16.8619C48.4058 11.4189 44.4143 7.42738 39.3343 7.42738ZM38.536 22.196C35.8508 22.196 33.4559 20.0914 33.4559 16.8619C33.4559 13.6324 35.8508 11.5278 38.536 11.5278C41.2212 11.5278 43.616 13.6324 43.616 16.8619C43.616 20.0914 41.2212 22.196 38.536 22.196Z"></path>
<path fill="white" d="M59.5104 7.42738C54.3577 7.42738 50.2936 11.4552 50.2936 16.8619C50.2936 22.2686 53.8497 26.2964 59.6555 26.2964C64.409 26.2964 67.4571 23.4298 68.4006 20.2002H63.7922C63.2116 21.5429 61.5787 22.4863 59.6192 22.4863C57.188 22.4863 55.3374 20.7808 54.902 18.3496H68.6183V16.499C68.6183 11.5641 65.1711 7.42738 59.5104 7.42738ZM54.9383 15.0113C55.4463 12.7252 57.3332 11.2375 59.6192 11.2375C62.0504 11.2375 63.901 12.8341 64.1188 15.0113H54.9383Z"></path>
<path fill="white" d="M81.173 7.42738C79.0683 7.42738 76.8549 8.37083 75.8388 9.93116V7.79025H71.1216V25.9335H75.8388V16.1724C75.8388 13.3421 77.3629 11.4915 79.8304 11.4915C82.1164 11.4915 83.3501 13.2332 83.3501 15.6644V25.9335H88.0674V14.9024C88.0674 10.4029 85.3096 7.42738 81.173 7.42738Z"></path>
<path fill="white" d="M100.149 0.533623L89.8801 25.9342H94.924L97.1011 20.3824H108.785L110.963 25.9342H116.079L105.882 0.533623H100.149ZM98.734 16.1731L102.943 5.54117L107.116 16.1731H98.734Z"></path>
<path fill="white" d="M122.792 0.533623H118.002V25.9342H122.792V0.533623Z"></path>
</g>
<defs>
<clipPath id="clip0_13_27632">
<rect fill="white" height="33.2982" width="122.947"></rect>
</clipPath>
</defs>
</svg>
