<svg xmlns="http://www.w3.org/2000/svg" fill="none" viewBox="0 0 130 30" style="display: block;" overflow="visible">
<g id="Docker">
<path fill="black" d="M31.7628 11.9104C33.5168 11.4305 35.9297 11.6984 36.8482 12.3258L37.4575 12.7418C37.4575 12.7418 37.0899 13.52 37.0509 13.5726C35.5179 16.578 32.4514 16.5132 31.1113 16.4848C31.054 16.4836 30.9998 16.4825 30.9491 16.4817C27.1888 26.0493 21.0079 30.0068 13.7932 30C9.06431 29.996 5.90169 28.4361 3.80852 26.3093C3.46986 25.9651 3.15851 25.6079 2.87392 25.2382C0.299469 21.894 -0.0385879 17.7861 0.0031865 15.6503H14.3936C16.0375 15.6503 17.4569 15.6598 18.6924 15.668C24.4619 15.7066 26.2219 15.7184 28.1023 14.6114C27.494 13.862 27.1793 12.8294 27.0852 11.9104C26.966 10.4188 27.303 8.77805 28.1023 7.54705L28.5089 6.92364L29.1188 7.33906C30.7669 8.64296 31.6687 10.1373 31.7628 11.9104Z"></path>
<path fill="black" d="M5.34808 10.373H9.39459V14.4792H5.34808V10.373Z"></path>
<path fill="black" d="M10.5754 10.373H14.622V14.4792H10.5754V10.373Z"></path>
<path fill="black" d="M15.8034 10.373H19.8499V14.4792H15.8034V10.373Z"></path>
<path fill="black" d="M21.0312 10.373H25.0778V14.4792H21.0312V10.373Z"></path>
<path fill="black" d="M0.120133 10.373H4.1667V14.4792H0.120133V10.373Z"></path>
<path fill="black" d="M5.34808 5.1868H9.39459V9.29294H5.34808V5.1868Z"></path>
<path fill="black" d="M10.5754 5.1868H14.622V9.29294H10.5754V5.1868Z"></path>
<path fill="black" d="M15.8034 5.1868H19.8499V9.29294H15.8034V5.1868Z"></path>
<path fill="black" d="M15.8034 0H19.8499V4.10614H15.8034V0Z"></path>
<path fill="black" d="M127.117 24.6889H127.548V23.9292H127.752C127.99 23.9292 128.104 24.0214 128.138 24.2282C128.148 24.2662 128.157 24.3028 128.165 24.3376C128.207 24.5041 128.239 24.6318 128.286 24.6889H128.751C128.704 24.6199 128.67 24.5046 128.614 24.2169C128.557 23.9637 128.455 23.8252 128.274 23.7569V23.7337C128.501 23.6647 128.659 23.5036 128.659 23.2962C128.659 23.112 128.58 22.9622 128.478 22.8819C128.341 22.8011 128.183 22.7435 127.831 22.7435C127.525 22.7435 127.286 22.7666 127.117 22.8011V24.6889ZM127.763 23.6184H127.559V23.0781C127.604 23.0656 127.683 23.0537 127.797 23.0537C128.069 23.0537 128.194 23.1696 128.194 23.3426C128.194 23.5381 128.001 23.6184 127.763 23.6184Z" clip-rule="evenodd" fill-rule="evenodd"></path>
<path fill="black" d="M127.842 25.6096C128.919 25.6096 129.748 24.7691 129.748 23.6986C129.748 22.6513 128.909 21.8109 127.842 21.8109C126.776 21.8109 125.925 22.6281 125.925 23.6986C125.925 24.7691 126.765 25.6096 127.842 25.6096ZM127.854 25.2066C127.014 25.2066 126.402 24.5391 126.402 23.6986C126.402 22.8701 127.016 22.1907 127.843 22.1907C128.67 22.1907 129.272 22.8819 129.272 23.7105C129.272 24.5391 128.693 25.2066 127.854 25.2066Z" clip-rule="evenodd" fill-rule="evenodd"></path>
<path fill="black" d="M56.6548 4.59391C56.388 4.3294 56.0677 4.19488 55.684 4.19488C55.3002 4.19488 54.9705 4.3294 54.7137 4.59391C54.4563 4.85842 54.3305 5.19754 54.3305 5.60165V12.3501C53.0104 11.2429 51.487 10.6845 49.7542 10.6845C47.7401 10.6845 46.0179 11.4226 44.5909 12.904C43.1639 14.3803 42.4554 16.1663 42.4554 18.2609C42.4554 20.3555 43.1689 22.1364 44.5909 23.6178C46.0179 25.0941 47.7357 25.8373 49.7542 25.8373C51.7728 25.8373 53.4716 25.0992 54.9175 23.6178C56.3446 22.1562 57.053 20.3708 57.053 18.2609V5.60165C57.053 5.19754 56.9222 4.85842 56.6548 4.59391ZM53.9712 20.0865V20.0966C53.7334 20.6703 53.4081 21.1739 52.9959 21.6029C52.5837 22.037 52.098 22.3761 51.545 22.6304C50.9868 22.8848 50.3948 23.0097 49.7592 23.0097C49.1237 23.0097 48.5171 22.8848 47.959 22.6304C47.4009 22.3761 46.9203 22.037 46.5131 21.608C46.1054 21.179 45.7807 20.6754 45.5428 20.1017C45.305 19.523 45.1836 18.9097 45.1836 18.2609C45.1836 17.612 45.305 16.9988 45.5428 16.42C45.7807 15.8413 46.1059 15.3428 46.5131 14.9138C46.9208 14.4848 47.4059 14.1457 47.959 13.8914C48.5171 13.637 49.1142 13.5121 49.7592 13.5121C50.4042 13.5121 50.9868 13.637 51.545 13.8914C52.103 14.1457 52.5837 14.4848 52.9959 14.9189C53.4081 15.353 53.7334 15.8565 53.9712 16.4251C54.209 16.9988 54.3305 17.6075 54.3305 18.2558C54.3305 18.9041 54.209 19.5179 53.9712 20.0865Z" clip-rule="evenodd" fill-rule="evenodd"></path>
<path fill="black" d="M115.353 12.9136C116.061 13.6421 116.601 14.4549 116.955 15.353C117.308 16.246 117.49 17.2187 117.49 18.266C117.49 18.6701 117.359 19.0092 117.092 19.2737C116.824 19.5382 116.504 19.6727 116.121 19.6727H105.799C105.945 20.1712 106.163 20.6251 106.449 21.0343C106.736 21.4486 107.07 21.7973 107.459 22.0918C107.842 22.3857 108.273 22.6106 108.735 22.7751C109.196 22.9396 109.681 23.0193 110.186 23.0193C110.758 23.0193 111.282 22.9294 111.763 22.7497C112.243 22.5699 112.685 22.2952 113.093 21.9364C113.349 21.7069 113.651 21.5922 113.99 21.582C114.378 21.582 114.703 21.7165 114.96 21.981C115.218 22.2455 115.344 22.5942 115.344 22.9887C115.344 23.3832 115.212 23.7224 114.951 24.0016C113.601 25.2286 112.014 25.8419 110.181 25.8419C108.162 25.8419 106.444 25.0986 105.017 23.6223C103.595 22.141 102.882 20.36 102.882 18.2654C102.882 16.1708 103.59 14.3848 105.017 12.9085C106.444 11.4271 108.182 10.689 110.181 10.689C112.179 10.689 113.902 11.4322 115.344 12.9085L115.353 12.9136ZM106.429 15.4977C106.143 15.9114 105.93 16.3652 105.789 16.8592H114.572C114.422 16.3607 114.203 15.9069 113.912 15.4977C113.626 15.0834 113.286 14.7346 112.898 14.4402C112.515 14.1457 112.087 13.9213 111.621 13.7569C111.156 13.5924 110.677 13.5127 110.181 13.5127C109.684 13.5127 109.204 13.5924 108.734 13.7569C108.263 13.9213 107.837 14.1457 107.444 14.4402C107.055 14.7346 106.716 15.0884 106.429 15.4977Z" clip-rule="evenodd" fill-rule="evenodd"></path>
<path fill="black" d="M129.64 11.6368C129.397 11.3926 129.092 11.2027 128.723 11.0631C128.354 10.9235 127.951 10.8286 127.51 10.7737C127.073 10.7189 126.66 10.6941 126.278 10.6941C125.408 10.6941 124.593 10.8387 123.827 11.1281C123.06 11.4175 122.351 11.8312 121.701 12.3699V12.1008C121.701 11.712 121.57 11.3825 121.303 11.1083C121.036 10.8342 120.72 10.6946 120.347 10.6946C119.974 10.6946 119.643 10.8342 119.377 11.1083C119.11 11.3825 118.979 11.7171 118.979 12.1008V24.4362C118.979 24.8251 119.11 25.1546 119.377 25.4287C119.643 25.7028 119.964 25.8424 120.347 25.8424C120.731 25.8424 121.041 25.7028 121.303 25.4287C121.57 25.1546 121.701 24.82 121.701 24.4362V18.266C121.701 17.6075 121.822 16.9892 122.06 16.4104C122.298 15.8317 122.623 15.3332 123.035 14.9042C123.449 14.4752 123.934 14.1361 124.486 13.8914C125.044 13.6421 125.637 13.5172 126.273 13.5172C126.909 13.5172 127.51 13.6319 128.059 13.8563C128.277 13.9564 128.467 14.0061 128.631 14.0061C128.821 14.0061 129 13.9711 129.165 13.8965C129.33 13.8218 129.476 13.7218 129.597 13.5924C129.719 13.4629 129.815 13.3132 129.888 13.1385C129.961 12.969 130 12.7841 130 12.5846C130 12.1958 129.879 11.8815 129.636 11.6368H129.64Z"></path>
<path fill="black" d="M71.0625 12.9091C71.7755 13.6472 72.3046 14.465 72.6588 15.358C73.008 16.2511 73.188 17.2187 73.198 18.266C73.198 20.3758 72.4895 22.1613 71.0625 23.6229C69.6165 25.1043 67.9178 25.8424 65.8992 25.8424C63.8807 25.8424 62.1629 25.0992 60.7359 23.6229C59.3145 22.1415 58.6009 20.3606 58.6009 18.266C58.6009 16.1714 59.3089 14.3853 60.7359 12.9091C62.1629 11.4277 63.8996 10.6895 65.8992 10.6895C67.8988 10.6895 69.6216 11.4328 71.0625 12.9091ZM70.1162 20.0966V20.0865C70.354 19.5179 70.4755 18.9041 70.4755 18.2558C70.4755 17.6075 70.354 16.9988 70.1162 16.4251C69.8783 15.8565 69.553 15.353 69.1408 14.9189C68.7287 14.4848 68.248 14.1457 67.6899 13.8914C67.1318 13.637 66.5492 13.5121 65.9042 13.5121C65.2592 13.5121 64.6621 13.637 64.104 13.8914C63.5509 14.1457 63.0658 14.4848 62.658 14.9138C62.2509 15.3428 61.9256 15.8413 61.6878 16.42C61.45 16.9988 61.3285 17.612 61.3285 18.2609C61.3285 18.9097 61.45 19.523 61.6878 20.1017C61.9256 20.6754 62.2503 21.179 62.658 21.608C63.0652 22.037 63.5459 22.3761 64.104 22.6304C64.6621 22.8848 65.2687 23.0097 65.9042 23.0097C66.5397 23.0097 67.1368 22.8848 67.6899 22.6304C68.243 22.3761 68.7287 22.037 69.1408 21.6029C69.553 21.1739 69.8783 20.6703 70.1162 20.0966Z" clip-rule="evenodd" fill-rule="evenodd"></path>
<path fill="black" d="M101.852 12.0957C101.852 11.9064 101.813 11.7267 101.741 11.5571C101.668 11.3876 101.571 11.2333 101.45 11.1033C101.328 10.9738 101.183 10.8687 101.018 10.7992C100.853 10.7297 100.674 10.6895 100.484 10.6895C100.213 10.6895 99.9698 10.7596 99.7565 10.9043L91.963 16.1668V5.61182C91.963 5.2128 91.8322 4.87876 91.5654 4.60408C91.2986 4.32996 90.9833 4.19036 90.6096 4.19036C90.2358 4.19036 89.9061 4.32996 89.6387 4.60408C89.3719 4.8782 89.241 5.2128 89.241 5.61182V24.4164C89.241 24.8053 89.3719 25.1399 89.6387 25.4191C89.9055 25.6983 90.2258 25.8379 90.6096 25.8379C90.9933 25.8379 91.3036 25.6983 91.5654 25.4191C91.8322 25.1399 91.963 24.8053 91.963 24.4164V19.5331L93.5549 18.4508L99.5771 25.4688C99.8199 25.713 100.126 25.8328 100.489 25.8328C100.679 25.8328 100.858 25.7978 101.023 25.7232C101.188 25.6531 101.334 25.5485 101.455 25.4191C101.576 25.2897 101.673 25.1399 101.746 24.9652C101.819 24.7957 101.857 24.6109 101.857 24.4266C101.857 24.0575 101.732 23.728 101.479 23.4392L95.8737 16.8903L101.333 13.2092C101.682 12.965 101.852 12.5909 101.852 12.0867L101.852 12.0957Z"></path>
<path fill="black" d="M80.2394 13.8914C79.6816 14.136 79.1961 14.4749 78.779 14.9036V14.907C78.3613 15.336 78.0316 15.8345 77.7937 16.4133C77.5559 16.992 77.4345 17.6103 77.4345 18.2688C77.4345 18.9273 77.5559 19.5456 77.7937 20.1243C78.0316 20.698 78.3618 21.2067 78.779 21.6306C79.1968 22.0545 79.6819 22.3936 80.24 22.6428C80.7981 22.8921 81.3902 23.017 82.0257 23.017C82.6033 23.017 83.1325 22.922 83.6176 22.7276C84.1078 22.5332 84.564 22.2438 85.0006 21.855C85.2429 21.6656 85.5298 21.5662 85.8595 21.556C86.2477 21.556 86.5725 21.6905 86.8298 21.955C87.0866 22.2195 87.213 22.5637 87.213 22.9627C87.213 23.3618 87.0671 23.706 86.7808 24.005C85.4368 25.2326 83.8499 25.8458 82.0252 25.8458C80.0066 25.8458 78.2889 25.1026 76.8619 23.6263C75.4404 22.1449 74.7269 20.364 74.7269 18.2694C74.7269 16.1748 75.4349 14.3887 76.8619 12.9124C78.2889 11.4311 80.0111 10.6929 82.0252 10.6929C83.8549 10.6929 85.4412 11.3067 86.7808 12.5338C87.0961 12.8226 87.2515 13.1967 87.2515 13.6009C87.2515 14.005 87.1255 14.3441 86.8682 14.6137C86.6109 14.8833 86.2906 15.0178 85.8974 15.0178C85.5676 15.0178 85.2713 14.9082 85.0096 14.6939C84.5684 14.3102 84.1022 14.0157 83.6171 13.8162C83.1269 13.6172 82.5977 13.5172 82.0252 13.5172C81.3897 13.5172 80.7976 13.6421 80.2394 13.8914Z"></path>
</g>
</svg>
