<svg xmlns="http://www.w3.org/2000/svg" fill="none" viewBox="0 0 122 24" height="24" width="122">
<path fill="white" d="M118.117 18.2215C118.191 19.0559 118.858 20.1185 120.016 20.1185H120.692C120.818 20.118 120.94 20.0674 121.029 19.978C121.119 19.8885 121.169 19.7672 121.169 19.6407V4.75526H121.167C121.16 4.6336 121.107 4.51901 121.019 4.43502C120.931 4.35103 120.814 4.30401 120.692 4.30363H118.595C118.473 4.30401 118.356 4.35103 118.268 4.43502C118.18 4.51901 118.127 4.6336 118.121 4.75526H118.117V5.96507C116.833 4.38107 114.807 3.72326 112.776 3.72326C111.677 3.72355 110.589 3.9402 109.575 4.36087C108.56 4.78154 107.638 5.39795 106.861 6.17495C106.085 6.95194 105.469 7.87427 105.049 8.88928C104.629 9.9043 104.413 10.992 104.413 12.0905C104.413 13.1891 104.629 14.2771 105.049 15.2923C105.468 16.3075 106.084 17.23 106.861 18.0072C107.637 18.7844 108.56 19.401 109.574 19.8219C110.589 20.2427 111.677 20.4596 112.776 20.4599C114.807 20.4599 117.021 19.6712 118.117 18.2192V18.2215ZM112.783 17.5309C109.846 17.5309 107.465 15.0959 107.465 12.0916C107.465 9.08723 109.846 6.65235 112.783 6.65235C115.721 6.65235 118.101 9.08723 118.101 12.0916C118.101 15.0959 115.721 17.5309 112.783 17.5309ZM101.762 18.7331V11.0312C101.762 6.68835 99.0245 3.75926 94.661 3.75926C92.5774 3.75926 90.869 4.96471 90.2654 6.00107C90.1348 5.19053 89.7054 4.33963 88.3726 4.33963H87.6941C87.5675 4.33991 87.4461 4.39035 87.3565 4.47989C87.267 4.56944 87.2166 4.69081 87.2163 4.81744V19.7039H87.2196C87.2326 19.9549 87.4411 20.1556 87.6941 20.1556H89.7916C89.8236 20.1556 89.8556 20.1512 89.8859 20.1458C89.9001 20.1436 89.9117 20.1371 89.9259 20.1338L89.973 20.1196C89.9916 20.1109 90.0076 20.1011 90.0254 20.0912L90.0512 20.0771C90.0716 20.063 90.0912 20.0473 90.109 20.0302L90.1205 20.0225C90.2076 19.939 90.2601 19.8249 90.2663 19.7039H90.269V10.9112C90.2681 9.79177 90.7125 8.71796 91.5036 7.92605C92.2956 7.13413 93.3685 6.68893 94.4885 6.68835C95.6076 6.68893 96.6805 7.13398 97.4725 7.92566C98.2636 8.71734 98.7081 9.79088 98.7081 10.9102L98.709 18.2607V18.2585L98.7116 18.2782V19.7039H98.7134C98.7276 19.9549 98.9348 20.1556 99.1881 20.1556H101.286C101.317 20.1554 101.349 20.1521 101.379 20.1458C101.392 20.1436 101.403 20.1382 101.416 20.1349C101.433 20.1305 101.45 20.1262 101.467 20.1196C101.484 20.1119 101.499 20.1022 101.516 20.0935L101.545 20.0771C101.564 20.0638 101.583 20.0492 101.6 20.0335L101.614 20.0225C101.633 20.0033 101.651 19.9825 101.667 19.9604L101.671 19.9559C101.724 19.8826 101.755 19.7956 101.761 19.7051H101.763L101.762 18.7331ZM79.9203 18.2215C79.9934 19.0559 80.6621 20.1185 81.8185 20.1185H82.4948C82.7566 20.1185 82.9716 19.9036 82.9716 19.6407V4.75526H82.9694C82.9628 4.63369 82.9099 4.51925 82.8217 4.43531C82.7335 4.35138 82.6166 4.30427 82.4948 4.30363H80.3971C80.2753 4.30427 80.1584 4.35138 80.0702 4.43531C79.982 4.51925 79.9292 4.63369 79.9225 4.75526H79.9203V5.96507C78.6352 4.38107 76.6094 3.72326 74.5771 3.72326C73.4787 3.72369 72.3911 3.94045 71.3765 4.36118C70.362 4.78191 69.4401 5.39835 68.6637 6.17533C67.8874 6.9523 67.2716 7.87459 66.8517 8.88955C66.4318 9.90448 66.2159 10.9921 66.2163 12.0905C66.2163 16.7127 69.9592 20.4599 74.5771 20.4599C76.6094 20.4599 78.8228 19.6712 79.9203 18.2192V18.2215ZM74.5858 17.5309C71.6491 17.5309 69.2676 15.0959 69.2676 12.0916C69.2676 9.08723 71.6491 6.65235 74.5858 6.65235C77.5225 6.65235 79.9028 9.08723 79.9028 12.0916C79.9028 15.0959 77.5225 17.5309 74.5858 17.5309ZM53.8138 16.0887C55.2134 17.0596 56.7418 17.5309 58.2101 17.5309C59.6098 17.5309 61.0563 16.8055 61.0563 15.5422C61.0563 13.8556 57.9036 13.5927 55.9236 12.9185C53.9436 12.2455 52.2374 10.8535 52.2374 8.59853C52.2374 5.14799 55.3094 3.72217 58.1763 3.72217C59.9927 3.72217 61.8668 4.32217 63.0821 5.1818C63.5011 5.49817 63.2458 5.86363 63.2458 5.86363L62.0861 7.5218C61.9552 7.70726 61.7283 7.86871 61.4011 7.6669C61.0738 7.46508 59.9261 6.65235 58.1763 6.65235C56.4276 6.65235 55.3727 7.45963 55.3727 8.46326C55.3727 9.66323 56.7428 10.0418 58.3476 10.4519C61.1425 11.2058 64.1916 12.1124 64.1916 15.5422C64.1916 18.5815 61.3508 20.4599 58.2101 20.4599C55.8308 20.4599 53.8051 19.7815 52.1054 18.5335C51.7519 18.1789 51.9985 17.8495 51.9985 17.8495L53.1527 16.1999C53.3883 15.8924 53.6839 15.9992 53.8138 16.0887ZM45.7508 18.2215C45.8251 19.0559 46.4927 20.1185 47.6491 20.1185H48.3254C48.4519 20.118 48.5732 20.0674 48.6627 19.978C48.7521 19.8885 48.8027 19.7672 48.8032 19.6407V4.75526H48.7999C48.7935 4.6336 48.7408 4.51901 48.6525 4.43502C48.5643 4.35103 48.4472 4.30401 48.3254 4.30363H46.2287C46.1069 4.30427 45.99 4.35138 45.9018 4.43531C45.8136 4.51925 45.7608 4.63369 45.7541 4.75526H45.7508V5.96507C44.4658 4.38107 42.4399 3.72326 40.4087 3.72326C38.1903 3.72412 36.0631 4.60613 34.495 6.17527C32.9269 7.7444 32.0463 9.87212 32.0468 12.0905C32.0468 16.7127 35.7908 20.4599 40.4087 20.4599C42.4399 20.4599 44.6545 19.6712 45.7508 18.2192V18.2215ZM40.4163 17.5309C37.4796 17.5309 35.0992 15.0959 35.0992 12.0916C35.0992 9.08723 37.4796 6.65235 40.4174 6.65235C43.3541 6.65235 45.7345 9.08723 45.7345 12.0916C45.7345 15.0959 43.3531 17.5309 40.4163 17.5309Z"></path>
<path fill="white" d="M20.3245 12.66C18.832 12.66 17.4006 13.2529 16.3452 14.3083C15.29 15.3636 14.6971 16.7949 14.6971 18.2875C14.6971 19.7799 15.29 21.2113 16.3452 22.2667C17.4006 23.322 18.832 23.9149 20.3245 23.9149C21.817 23.9149 23.2484 23.322 24.3037 22.2667C25.359 21.2113 25.9519 19.7799 25.9519 18.2875C25.9519 16.7949 25.359 15.3636 24.3037 14.3083C23.2484 13.2529 21.817 12.66 20.3245 12.66ZM5.70526 12.6611C4.9598 12.6508 4.21971 12.7885 3.52799 13.0667C2.83627 13.3448 2.20671 13.7575 1.67588 14.2811C1.14505 14.8045 0.723547 15.4283 0.43585 16.1161C0.148153 16.8038 0 17.542 0 18.2875C0 19.033 0.148153 19.7711 0.43585 20.4588C0.723547 21.1467 1.14505 21.7704 1.67588 22.2939C2.20671 22.8173 2.83627 23.2301 3.52799 23.5083C4.21971 23.7863 4.9598 23.9242 5.70526 23.9138C7.18389 23.8932 8.59499 23.2914 9.63336 22.2385C10.6716 21.1856 11.2538 19.7662 11.2538 18.2875C11.2538 16.8087 10.6716 15.3893 9.63336 14.3364C8.59499 13.2836 7.18389 12.6817 5.70526 12.6611ZM18.6412 5.62691C18.6412 7.11926 18.0484 8.55049 16.9932 9.60578C15.9379 10.661 14.5067 11.2538 13.0143 11.2538C11.522 11.2538 10.0908 10.661 9.0355 9.60578C7.98027 8.55049 7.38743 7.11926 7.38743 5.62691C7.38743 4.13456 7.98027 2.70333 9.0355 1.64808C10.0908 0.592834 11.522 0 13.0143 0C14.5067 0 15.9379 0.592834 16.9932 1.64808C18.0484 2.70333 18.6412 4.13456 18.6412 5.62691Z"></path>
</svg>
