<svg xmlns="http://www.w3.org/2000/svg" fill="none" viewBox="0 0 118 18" height="18" width="118">
<path fill="white" d="M1.42051 0.2259C2.70208 -0.3429 4.07372 0.2079 4.63116 1.431L9.0382 11.862L12.4738 3.73275C13.6389 1.06065 15.5451 0 17.9465 0C19.4982 0 21.3731 0.8622 22.4705 2.29275C22.4705 2.29275 24.845 0 27.552 0C30.1196 0 31.6395 0.8622 32.7414 2.29725C32.7414 2.29725 34.8054 0 38.1195 0C41.4337 0 44.1814 2.4057 44.1814 5.84055V15.183C44.1814 16.731 43.2955 17.9995 41.6497 17.9995C40.0038 17.9995 39.1493 16.7314 39.1493 15.183V6.9732C39.1493 5.4252 38.124 4.36455 36.5816 4.36455C35.0393 4.36455 33.9154 5.3892 33.9154 6.9732V15.1835C33.9154 16.7315 33.0201 18 31.3792 18C29.7373 18 28.8788 16.7319 28.8788 15.1835V6.9732C28.8788 5.4252 27.8531 4.36455 26.3112 4.36455C24.7684 4.36455 23.6396 5.3892 23.6396 6.9732V15.1835C23.6396 16.7315 22.7537 18 21.1078 18C19.4619 18 18.6074 16.7319 18.6074 15.1835V5.1498C18.6074 4.71645 18.2704 4.39155 17.8658 4.39155C17.3935 4.38705 17.2434 4.7151 17.1927 4.82625L17.191 4.8294C17.1461 4.9329 12.4514 15.1929 12.4514 15.1929C11.6063 16.9479 10.8279 18 9.0382 18C7.36547 18 6.47061 17.0343 5.62504 15.1924L0.242452 3.45285C-0.333358 2.22975 0.138941 0.79875 1.42051 0.2259Z"></path>
<path fill="white" d="M97.5977 9.17583C97.5977 14.4026 101.334 17.9684 105.912 17.9684H105.917C108.749 17.9684 110.62 16.9527 112.199 15.4182C112.46 15.1923 112.585 14.8989 112.585 14.6055C112.585 14.0192 112.104 13.5269 111.493 13.5269C111.201 13.5269 110.976 13.6578 110.782 13.8203C109.554 14.9624 108.044 15.7791 105.979 15.7791C103.011 15.7791 100.466 13.7168 100.116 10.0605H112.168C112.321 10.0599 112.472 10.0289 112.614 9.96933C112.755 9.9097 112.883 9.8227 112.991 9.71328C113.099 9.60385 113.184 9.4741 113.242 9.33153C113.299 9.18895 113.329 9.0364 113.328 8.88243C113.328 4.40047 110.522 0.320312 105.593 0.320312C100.984 0.320312 97.5977 4.24252 97.5977 9.10833V9.17583ZM105.521 2.44612C108.84 2.44612 110.584 5.12272 110.841 8.19663H100.112C100.426 4.89277 102.621 2.44612 105.521 2.44612Z" clip-rule="evenodd" fill-rule="evenodd"></path>
<path fill="white" d="M88.1456 1.62019C88.1456 0.925388 88.7034 0.32959 89.3958 0.32959C90.1194 0.32959 90.6818 0.889388 90.6818 1.62064V4.54564C91.932 1.70614 94.702 0.36559 96.537 0.36559C97.2965 0.36559 97.7917 0.925388 97.7917 1.65214C97.7917 2.37889 97.3324 2.83924 96.667 2.93869C93.3757 3.33559 90.6818 5.81374 90.6818 10.7336V16.5197C90.6818 17.215 90.156 17.8063 89.4316 17.8063C88.7079 17.8063 88.15 17.242 88.15 16.5197V1.62019H88.1456ZM50.5738 16.6777L45.4206 2.27044L45.3995 2.20924C45.3341 2.02024 45.2539 1.78714 45.2539 1.58014C45.2539 0.956887 45.7804 0.36109 46.531 0.36109C47.1879 0.36109 47.615 0.789938 47.813 1.41274L52.0848 13.8251L56.3838 1.37674C56.5819 0.785438 56.9776 0.35659 57.6296 0.35659H57.7644C58.4568 0.35659 58.8842 0.785438 59.0778 1.37674L63.3451 13.8251L67.6845 1.34524C67.8512 0.816938 68.2061 0.35659 68.8989 0.35659C69.5912 0.35659 70.1491 0.916388 70.1491 1.54369C70.1491 1.74034 70.0769 1.95949 70.0164 2.14309L69.9869 2.23444L64.7978 16.6727C64.5321 17.4265 64.0105 17.8238 63.4172 17.8238H63.3182C62.6617 17.8238 62.167 17.4265 61.9376 16.6727L57.7062 4.43269L53.434 16.6727C53.2046 17.4265 52.7099 17.8238 52.0579 17.8238H51.9902C51.37 17.8238 50.844 17.4265 50.5782 16.6727L50.5738 16.6777Z"></path>
<path fill="white" d="M70.1914 12.6647V12.6062C70.1914 9.0179 73.1413 7.10859 77.4362 7.10859C79.6035 7.10859 81.142 7.40649 82.6565 7.83531V7.23954C82.6565 4.17954 80.782 2.60004 77.6027 2.60004C75.8977 2.60004 74.9044 2.81604 73.6539 3.37629C73.4921 3.44379 73.3259 3.47529 73.2 3.47529C72.6107 3.47529 72.0846 2.97894 72.0846 2.38764C72.0846 1.86384 72.3141 1.53894 72.7729 1.33149C74.4412 0.60474 75.6998 0.36084 77.8633 0.36084C80.2555 0.36084 82.0949 0.984094 83.3362 2.23419C84.4826 3.38529 85.0763 5.03274 85.0763 7.20354V16.5964C85.0763 17.3186 84.5498 17.8465 83.8575 17.8465C83.1651 17.8465 82.6521 17.3186 82.6521 16.6594V15.0349C81.4698 16.5829 79.5004 17.9639 76.5228 17.9639C73.3707 17.9639 70.1914 16.154 70.1914 12.6647ZM82.6842 11.3606V9.71316C81.434 9.35181 79.7611 8.98641 77.6968 8.98641C74.5174 8.98641 72.7456 10.3724 72.7456 12.5068V12.5743C72.7456 14.714 74.711 15.9641 77.009 15.9641C80.1203 15.9641 82.6842 14.0552 82.6842 11.3606ZM115.044 1.37694C115.014 1.37664 114.985 1.38225 114.957 1.39344C114.93 1.40463 114.905 1.42118 114.884 1.44212C114.863 1.46306 114.847 1.48797 114.835 1.51542C114.824 1.54285 114.818 1.57227 114.819 1.60194V3.21339C114.819 3.33984 114.913 3.43929 115.044 3.43929C115.074 3.43997 115.103 3.43458 115.13 3.42347C115.158 3.41235 115.183 3.39573 115.204 3.37461C115.225 3.35349 115.242 3.32831 115.253 3.3006C115.263 3.27289 115.269 3.24322 115.268 3.21339V2.77104H115.623L116.06 3.32184C116.114 3.38484 116.181 3.43434 116.281 3.43434C116.388 3.43434 116.491 3.35334 116.491 3.22734C116.491 3.15984 116.464 3.10989 116.419 3.05544L116.11 2.67654C116.352 2.57304 116.514 2.37864 116.514 2.04924C116.514 1.85934 116.455 1.69689 116.339 1.58439C116.213 1.45344 116.006 1.37649 115.745 1.37649L115.044 1.37694ZM116.06 2.08074C116.06 2.25669 115.939 2.36964 115.723 2.36964H115.268V1.78284H115.714C115.93 1.78284 116.06 1.88184 116.06 2.08074Z" clip-rule="evenodd" fill-rule="evenodd"></path>
<path fill="white" d="M113.527 2.45062V2.43712C113.527 1.28647 114.458 0.320312 115.622 0.320312C116.787 0.320312 117.723 1.27747 117.723 2.42812V2.43712C117.723 3.58822 116.796 4.55842 115.622 4.55842C115.347 4.55877 115.074 4.50447 114.819 4.39862C114.565 4.29278 114.333 4.13748 114.139 3.94163C113.944 3.74578 113.79 3.51325 113.685 3.25738C113.58 3.00151 113.527 2.72734 113.527 2.45062ZM117.318 2.43037C117.317 1.47907 116.589 0.708663 115.622 0.708663C114.656 0.708663 113.923 1.49842 113.923 2.43262V2.44162C113.923 3.38527 114.651 4.15702 115.622 4.15702C116.593 4.15702 117.317 3.37267 117.318 2.43037Z" clip-rule="evenodd" fill-rule="evenodd"></path>
</svg>
