<svg xmlns="http://www.w3.org/2000/svg" fill="none" viewBox="0 0 150 16" style="display: block;" overflow="visible">
<g id="Vector">
<path fill="white" d="M89.4678 8.02198C89.4678 3.31473 92.7937 0 97.4954 0C102.17 0 105.475 3.31473 105.475 8.02198C105.475 12.685 102.17 16 97.4954 16C92.7937 16 89.4678 12.685 89.4678 8.02198ZM101.868 8.02198C101.868 4.95026 100.217 3.09384 97.4954 3.09384C94.75 3.09384 93.0749 4.95026 93.0749 8.02198C93.0749 11.0497 94.75 12.9062 97.4954 12.9062C100.217 12.9062 101.868 11.0497 101.868 8.02198Z" clip-rule="evenodd" fill-rule="evenodd"></path>
<path fill="white" d="M33.9154 15.7348H29.9606L22.6344 4.90599V15.7348H19.2601V0.265091H23.2149L30.5441 11.0939V0.265091H33.9154V15.7348Z"></path>
<path fill="white" d="M36.7093 0.265091H51.1318V3.24863H45.6652V15.7348H42.1759V3.24863H36.7093V0.265091Z"></path>
<path fill="white" d="M57.4118 9.41419H65.0886V15.7348H68.5779V0.265091H65.0886V6.43094H57.4118V0.265091H53.9225V15.7348H57.4118V9.41419Z"></path>
<path fill="white" d="M116.686 0.265091H108.731V15.7348H112.22V10.1214H116.686C120.384 10.1214 122.643 8.26523 122.643 5.19323C122.643 2.12151 120.384 0.265091 116.686 0.265091ZM112.22 7.13811V3.24863H116.523C118.243 3.24863 119.153 3.91157 119.153 5.19323C119.153 6.47517 118.243 7.13811 116.523 7.13811H112.22Z" clip-rule="evenodd" fill-rule="evenodd"></path>
<path fill="white" d="M72.8806 0.265091H80.8387C84.5365 0.265091 86.7921 2.05516 86.7921 4.97234C86.7921 7.02753 85.6764 8.50824 83.7443 9.21542L83.7413 9.21657L87.6085 15.7348H83.7443L80.2551 9.67959H76.3728V15.7348H72.8806V0.265091ZM76.3728 3.24863V6.69605H80.6754C82.3958 6.69605 83.3029 6.09946 83.3029 4.97234C83.3029 3.84522 82.3958 3.24863 80.6754 3.24863H76.3728Z" clip-rule="evenodd" fill-rule="evenodd"></path>
<path fill="white" d="M150 10.5413H146.278C145.67 12.0442 144.461 12.9062 142.81 12.9062C140.064 12.9062 138.389 11.0497 138.389 8.02198C138.389 4.95026 140.064 3.09384 142.81 3.09384C144.461 3.09384 145.67 3.95584 146.278 5.45866H149.976C149.069 2.14365 146.347 0 142.81 0C138.111 0 134.785 3.31473 134.785 8.02198C134.785 12.685 138.111 16 142.81 16C146.369 16 149.09 13.8342 150 10.5413Z"></path>
<path fill="white" d="M127.595 0.265091H124.037L130.528 15.7348H134.087L127.595 0.265091Z"></path>
<path fill="white" d="M13.074 15.7348L11.7466 12.4862H4.95567L3.62831 15.7348H0L6.48861 0.265091H10.2107L16.7023 15.7348H13.074ZM8.35115 4.17669L10.5705 9.61324H6.12882L8.35115 4.17669Z" clip-rule="evenodd" fill-rule="evenodd"></path>
</g>
</svg>
