<svg xmlns="http://www.w3.org/2000/svg" fill="none" viewBox="0 0 157 34" height="34" width="157">
<g clip-path="url(#clip0_871_13)">
<path fill="white" d="M65.2926 6.69671V26.7868H61.8047V11.0216H61.7582L55.5266 26.7868H53.2014L46.8302 11.0216H46.7837V26.7868H43.5749V6.69671H48.5974L54.364 21.5782H54.457L60.5491 6.69671H65.2926ZM68.1759 8.23137C68.1759 7.67331 68.3619 7.20826 68.7805 6.83622C69.199 6.46419 69.6641 6.27817 70.2221 6.27817C70.8267 6.27817 71.3382 6.46419 71.7103 6.83622C72.0823 7.20826 72.3148 7.67331 72.3148 8.23137C72.3148 8.78942 72.1288 9.25447 71.7103 9.62651C71.2917 9.99855 70.8267 10.1846 70.2221 10.1846C69.6175 10.1846 69.1525 9.99855 68.7805 9.62651C68.4084 9.20797 68.1759 8.74292 68.1759 8.23137ZM71.9428 12.3703V26.7868H68.5479V12.3703H71.9428ZM82.2203 24.322C82.7319 24.322 83.2899 24.229 83.8945 23.95C84.4991 23.7174 85.0571 23.3919 85.5687 23.0199V26.1822C85.0106 26.5077 84.4061 26.7403 83.7085 26.8798C83.0109 27.0193 82.2668 27.1123 81.4298 27.1123C79.2905 27.1123 77.5699 26.4612 76.2677 25.1126C74.9191 23.7639 74.268 22.0433 74.268 19.9971C74.268 17.6718 74.9656 15.7651 76.3142 14.277C77.6629 12.7888 79.5696 12.0448 82.0808 12.0448C82.7319 12.0448 83.383 12.1378 83.9875 12.2773C84.6386 12.4168 85.1501 12.6493 85.5222 12.8353V16.0907C85.0106 15.7186 84.4526 15.3931 83.941 15.2071C83.3829 15.0211 82.8249 14.8815 82.2668 14.8815C80.9182 14.8815 79.8486 15.3001 79.0115 16.1837C78.1744 17.0673 77.8024 18.2299 77.8024 19.718C77.8024 21.1597 78.2209 22.3223 79.0115 23.1129C79.8021 23.9035 80.8717 24.322 82.2203 24.322ZM95.1952 12.1378C95.4742 12.1378 95.7067 12.1378 95.9392 12.1843C96.1718 12.2308 96.3578 12.2773 96.4973 12.3238V15.7651C96.3113 15.6256 96.0787 15.4861 95.7067 15.3931C95.3347 15.3001 94.9626 15.2071 94.4511 15.2071C93.614 15.2071 92.9164 15.5791 92.3584 16.2767C91.8003 16.9743 91.4748 18.0439 91.4748 19.532V26.7868H88.0799V12.3703H91.4748V14.649H91.5213C91.8468 13.8584 92.3119 13.2539 92.9164 12.7888C93.5675 12.3703 94.3116 12.1378 95.1952 12.1378ZM96.6833 19.811C96.6833 17.4393 97.3809 15.5326 98.683 14.1375C100.032 12.7423 101.892 12.0448 104.264 12.0448C106.496 12.0448 108.263 12.6958 109.519 14.0445C110.774 15.3931 111.425 17.2068 111.425 19.4855C111.425 21.8107 110.728 23.6709 109.426 25.0661C108.077 26.4612 106.263 27.1588 103.938 27.1588C101.706 27.1588 99.9386 26.5077 98.6365 25.2056C97.3344 23.857 96.6833 22.0433 96.6833 19.811ZM100.218 19.6715C100.218 21.1597 100.543 22.3223 101.241 23.1129C101.938 23.9035 102.915 24.322 104.171 24.322C105.38 24.322 106.356 23.95 107.007 23.1129C107.658 22.3223 107.984 21.1597 107.984 19.5785C107.984 18.0439 107.658 16.8812 107.007 16.0442C106.356 15.2536 105.38 14.835 104.217 14.835C102.961 14.835 102.031 15.2536 101.334 16.0907C100.543 16.9743 100.218 18.1369 100.218 19.6715ZM116.494 16.1837C116.494 16.6487 116.634 17.0673 116.959 17.3463C117.285 17.6253 117.936 17.9509 119.006 18.3694C120.354 18.9275 121.331 19.532 121.842 20.1831C122.4 20.8807 122.679 21.6712 122.679 22.6478C122.679 23.9965 122.168 25.0661 121.098 25.9032C120.075 26.7403 118.634 27.1123 116.866 27.1123C116.262 27.1123 115.611 27.0193 114.867 26.8798C114.123 26.7403 113.518 26.5542 113.006 26.3217V22.9734C113.611 23.3919 114.309 23.7639 115.006 23.9965C115.704 24.229 116.355 24.3685 116.959 24.3685C117.703 24.3685 118.308 24.2755 118.634 24.043C119.006 23.8105 119.192 23.4849 119.192 22.9734C119.192 22.5083 119.006 22.1363 118.634 21.7642C118.262 21.4387 117.517 21.0667 116.494 20.6481C115.239 20.1366 114.355 19.532 113.844 18.8809C113.332 18.2299 113.053 17.3928 113.053 16.3697C113.053 15.0676 113.565 13.998 114.588 13.1609C115.611 12.3238 116.959 11.9052 118.587 11.9052C119.099 11.9052 119.657 11.9517 120.261 12.0913C120.866 12.2308 121.424 12.3703 121.842 12.5098V15.8116C121.377 15.5326 120.866 15.2536 120.261 15.0211C119.657 14.7885 119.052 14.6955 118.494 14.6955C117.843 14.6955 117.331 14.835 117.006 15.0676C116.68 15.3931 116.494 15.7186 116.494 16.1837ZM124.121 19.811C124.121 17.4393 124.819 15.5326 126.121 14.1375C127.469 12.7423 129.33 12.0448 131.701 12.0448C133.934 12.0448 135.701 12.6958 136.956 14.0445C138.212 15.3931 138.863 17.2068 138.863 19.4855C138.863 21.8107 138.166 23.6709 136.863 25.0661C135.515 26.4612 133.701 27.1588 131.376 27.1588C129.144 27.1588 127.376 26.5077 126.074 25.2056C124.819 23.857 124.121 22.0433 124.121 19.811ZM127.655 19.6715C127.655 21.1597 127.981 22.3223 128.679 23.1129C129.376 23.9035 130.353 24.322 131.608 24.322C132.817 24.322 133.794 23.95 134.445 23.1129C135.096 22.3223 135.422 21.1597 135.422 19.5785C135.422 18.0439 135.096 16.8812 134.445 16.0442C133.794 15.2536 132.817 14.835 131.655 14.835C130.399 14.835 129.469 15.2536 128.772 16.0907C128.027 16.9743 127.655 18.1369 127.655 19.6715ZM150.164 15.1606H145.095V26.7868H141.653V15.1606H139.235V12.3703H141.653V10.3706C141.653 8.88243 142.165 7.6268 143.142 6.6502C144.118 5.6736 145.374 5.20856 146.908 5.20856C147.327 5.20856 147.699 5.25506 148.025 5.25506C148.35 5.25506 148.629 5.34807 148.862 5.44108V8.37088C148.769 8.32437 148.536 8.23137 148.257 8.13836C147.978 8.04535 147.653 7.99884 147.28 7.99884C146.583 7.99884 146.025 8.23137 145.653 8.64991C145.281 9.06845 145.095 9.76602 145.095 10.6031V12.3238H150.164V9.06845L153.559 8.04535V12.3238H157V15.1141H153.559V21.8573C153.559 22.7408 153.745 23.3454 154.024 23.7174C154.349 24.0895 154.861 24.2755 155.558 24.2755C155.744 24.2755 155.977 24.229 156.256 24.136C156.535 24.043 156.767 23.95 156.953 23.8105V26.6007C156.721 26.7403 156.395 26.8333 155.884 26.9263C155.372 27.0193 154.907 27.0658 154.396 27.0658C152.954 27.0658 151.884 26.6937 151.187 25.9497C150.489 25.2056 150.117 24.043 150.117 22.5083L150.164 15.1606Z"></path>
<path fill="white" d="M15.9046 0H0V15.9046H15.9046V0Z"></path>
<path fill="white" d="M33.4834 0H17.5788V15.9046H33.4834V0Z"></path>
<path fill="white" d="M15.9046 17.5788H0V33.4834H15.9046V17.5788Z"></path>
<path fill="white" d="M33.4834 17.5788H17.5788V33.4834H33.4834V17.5788Z"></path>
</g>
<defs>
<clipPath id="clip0_871_13">
<rect fill="white" height="33.4834" width="157"></rect>
</clipPath>
</defs>
</svg>
