<svg xmlns="http://www.w3.org/2000/svg" fill="none" viewBox="0 0 115 37" style="display: block;" overflow="visible">
<g id="Google">
<path fill="white" d="M14.8575 13.0693H28.2716C28.2716 13.0693 28.5147 14.0182 28.5147 15.6613C28.5147 23.4478 22.782 28.7138 14.9508 28.7138C6.04786 28.7138 0 21.608 0 14.3211C0 6.88497 6.42933 0 14.7407 0C21.2677 0 24.8473 3.91007 24.8473 3.91007L22.0608 6.74401C22.0608 6.74401 19.4006 3.91953 14.8865 3.91953C9.03476 3.91953 4.36845 8.47445 4.36845 14.3906C4.3497 15.7541 4.60802 17.1077 5.1282 18.3722C5.64839 19.6367 6.41995 20.7868 7.39791 21.7554C8.37586 22.7241 9.54052 23.4917 10.8242 24.0137C12.1077 24.5356 13.4844 24.8013 14.8736 24.7954C19.2591 24.7954 23.9031 22.4474 24.3746 16.9773H14.8575V13.0693Z"></path>
<path fill="white" d="M29.8158 19.3905C29.8158 14.4642 33.7619 10.2386 39.2686 10.2386C43.7945 10.2375 48.7032 13.3965 48.7032 19.4978C48.7032 24.8311 44.4836 28.6949 39.3329 28.6949C33.642 28.6949 29.8158 24.3914 29.8158 19.3905ZM44.5951 19.4746C44.5951 16.0144 42.0321 13.8657 39.3263 13.8636C36.2847 13.8658 33.9505 16.2509 33.9505 19.4473C33.9505 22.7146 36.3085 25.0731 39.3093 25.0731C42.0401 25.0731 44.5951 22.8619 44.5951 19.4746Z" clip-rule="evenodd" fill-rule="evenodd"></path>
<path fill="white" d="M59.8257 10.2386C54.319 10.2386 50.3729 14.4642 50.3729 19.3905C50.3729 24.3914 54.199 28.6949 59.89 28.6949C65.0407 28.6949 69.2603 24.8311 69.2603 19.4978C69.2603 13.3965 64.3516 10.2375 59.8257 10.2386ZM59.8834 13.8636C62.5891 13.8657 65.1522 16.0144 65.1522 19.4746C65.1522 22.8619 62.5972 25.0731 59.8663 25.0731C56.8656 25.0731 54.5076 22.7146 54.5076 19.4473C54.5076 16.2509 56.8418 13.8658 59.8834 13.8636Z" clip-rule="evenodd" fill-rule="evenodd"></path>
<path fill="white" d="M70.9622 19.4704C70.9622 14.5936 74.934 10.2491 79.9883 10.2491H79.9906C82.1898 10.2491 83.8488 11.0833 85.0599 12.3666V10.8035H88.9867V27.3779C88.9867 33.8936 85.1692 37 80.1321 37C75.5278 37 72.9469 34.226 71.6653 31.5646L75.2791 30.0919C75.7893 31.2806 77.2297 33.3771 80.1019 33.3771C83.0749 33.3771 85.0449 31.4699 85.0449 28.2857V26.4658C84.0053 27.664 82.5799 28.7086 79.9006 28.7086C75.5674 28.7086 70.9622 25.0247 70.9622 19.4704ZM85.375 19.4904C85.375 15.9443 82.8307 13.8678 80.3527 13.8678C77.7014 13.8678 75.0969 15.9811 75.0969 19.5241C75.0969 22.9355 77.6037 25.0815 80.2982 25.0815C82.835 25.0815 85.375 23.0954 85.375 19.4904Z" clip-rule="evenodd" fill-rule="evenodd"></path>
<path fill="white" d="M106.538 10.227C101.77 10.227 97.7675 13.9509 97.7675 19.442C97.7675 25.2551 102.229 28.7023 106.984 28.7023C110.963 28.7023 113.415 26.5668 114.862 24.6523L111.611 22.5295C110.768 23.8128 109.357 25.0699 107.005 25.0699C104.362 25.0699 103.146 23.6498 102.393 22.2718L115 17.1383L114.357 15.634C113.14 12.6885 110.297 10.227 106.538 10.227ZM106.702 13.7763C108.42 13.7763 109.655 14.6725 110.18 15.7476L101.761 19.2011C101.396 16.5271 103.979 13.7763 106.691 13.7763H106.702Z" clip-rule="evenodd" fill-rule="evenodd"></path>
<path fill="white" d="M95.8888 28.1553H91.7475V0.955171H95.8888V28.1553Z"></path>
</g>
</svg>
