<svg xmlns="http://www.w3.org/2000/svg" fill="none" viewBox="0 0 132.003 31.469" style="display: block;" overflow="visible">
<g id="Group">
<path fill="white" d="M6.34806 21.1353C6.27182 21.1753 6.1976 21.2247 6.12541 21.2822H0.00947438V27.5734L3.8748 31.4689H16.8856L20.6754 27.6835V15.9282L16.7482 12.1331H11.8403C11.8238 11.773 11.8994 11.4552 11.8994 11.4552C12.4241 11.1969 12.9598 11.8479 12.9598 11.8479C13.2104 11.8267 13.5272 12.0079 13.5272 12.0079C13.8994 11.8856 15.0162 12.1741 15.067 12.0925C15.1096 11.4257 14.8376 11.0189 14.6145 10.8012H20.6767V4.418L16.3582 0H4.50394L0 4.47304V15.9804L3.91202 19.8924H7.47033C7.38867 20.1013 7.30407 20.2741 7.30407 20.2741L6.34806 21.1353ZM12.9152 9.74215C12.7868 9.68305 12.6172 9.6817 12.6172 9.6817L12.3823 9.42814C12.3823 8.90073 11.8082 9.0442 11.8082 9.0442L11.8563 8.75726C12.0135 8.75726 12.4498 8.81953 12.9167 8.88427V9.74193L12.9152 9.74215ZM12.4735 21.9472L13.2639 21.9788V23.8854H11.3848L11.3835 23.5626L11.404 21.8317C11.4363 21.4141 11.7473 21.6627 11.7473 21.6627C12.0108 21.928 12.4735 21.9472 12.4735 21.9472ZM12.9152 7.87389C12.8926 7.86577 12.8698 7.85404 12.8473 7.84434H12.9152V7.87389ZM4.12271 19.3828L0.516579 15.7769V4.70494L4.70809 0.531919H16.1349L20.2071 4.70764V10.2892H13.981C13.9364 10.2172 13.9068 10.1608 13.9068 10.1608C13.797 9.96096 13.6039 9.88675 13.4295 9.86148V8.9542C13.9219 9.01871 14.3469 9.06406 14.3972 9.0133C14.628 8.78118 14.0331 8.40829 13.4295 8.11142V7.33814H11.7446C11.3257 7.05639 11.2605 6.81344 11.2605 6.81344C11.1171 5.90345 12.1218 6.27498 12.1218 6.27498C12.6533 6.31558 12.7631 6.0133 12.7631 6.0133C12.5578 5.41913 11.8078 5.22828 11.6882 5.1773C11.5461 5.1182 11.5236 5.06451 11.5784 4.95555C11.616 4.88066 12.0201 5.06338 12.1511 4.93435C12.4505 4.63343 11.4081 3.96796 11.4081 3.96796C12.0866 3.93029 11.3379 3.23663 11.3379 3.23663C10.8867 2.87954 11.044 2.56553 11.044 2.56553C11.5206 2.61358 11.5193 2.11437 11.4451 2.09565C10.743 1.93503 10.8626 1.66095 10.8626 1.66095C10.8626 1.42184 10.7458 1.17415 10.7458 1.17415C10.8412 0.744191 10.647 0.830138 10.647 0.830138C10.3605 0.830138 10.526 1.0864 10.526 1.0864C10.4225 1.51906 10.1243 1.81841 10.1243 1.81841C9.47664 1.806 9.81456 2.41394 9.81456 2.41394L10.217 2.37762L10.1229 2.77103C9.1888 3.17911 9.44438 3.85134 9.97675 3.91315C10.0241 4.03406 9.94855 4.14256 9.94855 4.14256C9.3943 4.16648 9.50484 4.37897 9.03653 4.60703C8.6738 4.78682 8.68214 4.97225 8.71034 5.10354C8.7638 5.36521 9.11413 5.11594 9.11413 5.11594L8.76944 5.58425C7.61628 6.09722 8.63342 6.43243 8.63342 6.43243C9.5407 5.88991 9.89509 6.09722 9.89509 6.09722C10.0386 6.66726 9.7541 7.07105 9.4225 7.33543H7.63883C7.63883 7.4983 7.63883 7.78118 7.63883 8.13692C7.0803 8.52356 6.8766 9.04127 6.8766 9.04127C6.49401 9.42521 6.68485 9.6156 6.68485 9.6156C6.87502 9.71102 7.27813 9.55649 7.63748 9.37851C7.63748 9.73628 7.63748 10.1092 7.63748 10.4692C7.60793 10.483 7.58808 10.4931 7.58808 10.4931C7.34896 10.9711 6.4392 11.3551 6.4392 11.3551C5.33904 11.8315 5.86509 12.4566 5.86509 12.4566C6.04082 12.4861 6.9551 12.2971 7.63771 12.1495C7.63771 12.3693 7.63771 12.5466 7.63771 12.6632C7.85404 12.6632 8.45634 12.6632 9.24835 12.6632C9.04578 13.0072 8.69004 13.365 8.69004 13.365C8.54499 13.843 7.97224 14.0361 7.97224 14.0361C6.44055 14.418 6.53484 14.944 6.53484 14.944L7.68372 14.8486C8.01894 14.5621 8.25918 14.8486 8.25918 14.8486L8.64176 14.944C8.83486 15.2312 8.5504 16.0814 8.5504 16.0814H7.78524C7.73719 16.3699 7.21113 16.3672 7.21113 16.3672C6.97202 16.2738 6.68373 16.5608 6.68373 16.5608C6.58831 16.7518 6.15767 16.944 6.15767 16.944C5.77509 17.0374 6.06225 17.2298 6.06225 17.2298C6.39814 16.9907 6.39814 17.5157 6.39814 17.5157C6.30272 17.7559 5.52379 17.7451 5.5362 17.947C5.56033 18.3041 8.1694 17.2271 8.1694 17.2271C8.50371 16.9443 8.74283 17.0871 8.74283 17.0871C8.98239 17.469 8.26482 17.947 8.26482 17.947C7.97788 18.282 7.5107 18.4663 7.5107 18.4663C6.40558 18.6449 6.28129 19.2849 6.27024 19.3796C5.01849 19.3828 4.12271 19.3828 4.12271 19.3828ZM8.31309 8.99706C8.8405 8.46943 9.22309 8.99706 9.22309 8.99706C10.1331 9.33272 9.5116 9.66591 9.5116 9.66591C9.39205 9.66591 8.68891 9.98262 8.16692 10.2231V9.08842C8.25805 9.03473 8.31309 8.99706 8.31309 8.99706ZM8.16669 7.87141V7.84457H8.24362C8.21677 7.85291 8.19196 7.86306 8.16669 7.87141ZM8.40288 11.977C9.26482 11.6438 9.31287 12.1232 9.31287 12.1232C9.31557 12.1261 9.31715 12.1274 9.31986 12.1315H8.16669V12.0331C8.31309 11.9995 8.40288 11.977 8.40288 11.977ZM10.0122 21.9143C10.168 22.2355 10.1976 23.1119 10.1976 23.1119V23.2905L10.1805 23.8881H8.45521V22.3194C8.83509 22.0433 9.09044 21.524 9.09044 21.524C9.57747 21.321 9.85539 21.5928 10.0122 21.9143ZM6.33092 19.3828L7.50394 19.1423C7.598 19.155 7.62192 19.2497 7.61109 19.3828C7.1606 19.3828 6.72929 19.3828 6.33092 19.3828ZM7.49694 22.7148C7.64041 22.4719 7.87953 22.4759 7.87953 22.4759C7.89667 22.4787 7.91179 22.4773 7.92758 22.48C7.92758 23.1064 7.92758 24.0074 7.92758 24.4209C8.26617 24.4209 9.18654 24.4209 10.2044 24.4209L10.1638 25.3262C10.1527 25.7329 10.1261 26.6007 10.0929 26.8479C9.99615 27.5829 9.82854 27.686 9.72478 27.7534C9.5786 27.8454 9.36362 27.8838 9.04826 28.0185C8.27272 28.3453 8.33949 29.1626 7.96525 29.4004C7.50777 29.6916 7.63342 29.5982 7.22692 29.6887C6.81885 29.7793 6.59913 30.2312 6.59913 30.2312H14.9106C14.8784 29.9742 14.9346 29.7421 13.961 29.4193C13.0117 29.1046 13.4911 28.9345 12.268 28.3124C11.8276 28.0897 11.5955 27.2986 11.4746 26.7065C11.3832 26.256 11.4374 26.05 11.4374 26.05L11.39 24.686L11.3887 24.4209C12.4518 24.4209 13.4266 24.4209 13.7767 24.4209C13.7767 24.0403 13.778 23.0336 13.778 22.0061C14.3467 22.1037 15.2973 22.8565 15.2973 22.8565C16.3027 23.4322 16.1119 22.8069 16.1119 22.8069C15.8247 20.7521 14.6275 20.5599 14.6275 20.5599C13.9104 20.3672 14.3884 19.9359 14.3884 19.9359C15.251 19.2671 14.2326 19.083 14.2326 19.083C13.563 19.175 12.8527 18.7232 12.8527 18.7232C11.6555 17.8125 12.0931 17.2287 12.0931 17.2287C12.1886 16.6063 13.6111 17.5294 13.6111 17.5294C13.9937 17.8646 14.3762 17.5748 14.3762 17.5748C14.4236 17.3839 14.87 17.0363 14.87 17.0363C15.6839 16.4139 13.7203 16.2725 13.7203 16.2725C12.7861 15.6887 12.2127 15.4908 11.9352 14.7588C11.857 14.5533 11.8529 14.4166 11.8529 14.4166C11.8529 14.4166 13.3239 14.5533 13.4058 14.5718C13.4881 14.5896 14.0185 14.6488 14.0047 14.4633C13.9952 14.3273 13.7363 13.9262 13.1353 13.6557C12.6093 13.4207 12.1592 12.9587 11.9781 12.6598C14.2384 12.6598 16.5199 12.6598 16.5199 12.6598L20.2082 16.1994V27.4121L16.6045 31.0178H4.14211L0.5247 27.3591V21.8152H5.62891C5.04105 22.6244 4.68937 23.7575 4.68937 23.7575C4.64132 24.3318 5.44348 23.8538 5.44348 23.8538C5.44348 23.8538 5.52379 23.7094 5.54996 23.6614C5.83442 23.1818 6.605 23.1351 6.605 23.1351C6.986 23.2274 7.49694 22.7148 7.49694 22.7148Z" id="Vector"></path>
<path fill="white" d="M11.0849 1.63047C11.1145 1.65573 11.2133 1.73198 11.5129 1.79943C11.6791 1.8371 11.787 1.99185 11.7897 2.17502C11.7897 2.20186 11.787 2.23141 11.7842 2.25961C11.7533 2.44504 11.6126 2.72949 11.3694 2.79942C11.3852 2.81048 11.4957 2.89643 11.4957 2.89643C11.9112 3.21991 12.2498 3.82897 11.9022 3.94447C12.3735 4.2666 12.53 4.59978 12.5354 4.72949C12.5492 5.02207 12.3762 5.09065 12.3453 5.13328C12.62 5.2666 12.9223 5.53098 13.0547 5.91627L13.0897 6.02071L13.0525 6.1229C12.9839 6.316 12.7044 6.63272 12.0978 6.58737L12.0615 6.58196L12.0258 6.57226C11.8431 6.51474 11.6563 6.49195 11.5814 6.55805C11.5623 6.57655 11.5384 6.60474 11.5384 6.66655C11.5384 6.69046 11.5652 6.72701 11.5679 6.75363C11.5774 6.77235 11.6002 6.80732 11.6381 6.85333H13.9546V8.03786C14.3741 8.28103 14.6888 8.54406 14.745 8.80032C14.7518 8.83122 14.7567 8.86348 14.7581 8.89574C14.7581 9.01936 14.71 9.13891 14.616 9.23366C14.5129 9.33742 14.4003 9.37239 13.9546 9.33201V9.75656C13.9733 9.77235 13.9895 9.78746 14.0082 9.80596H19.6881V4.96207L15.9225 1.08975H11.0419C11.0389 1.10351 11.0364 1.11592 11.0349 1.12607C11.0865 1.20457 11.1612 1.62077 11.0849 1.63047Z" id="Vector_2"></path>
<path fill="white" d="M8.02734 17.7507L8.05554 17.7191L8.08915 17.6943C8.17217 17.6395 8.24503 17.575 8.31022 17.5105C8.29714 17.5159 8.28473 17.5202 8.28473 17.5202C5.82726 18.5299 5.51753 18.3345 5.40091 18.2619C5.29579 18.2001 5.23398 18.0929 5.22518 17.9734C5.22518 17.9639 5.22383 17.9555 5.22383 17.9474C5.22112 17.6122 5.59265 17.5148 5.84124 17.4516C5.74018 17.3706 5.65176 17.2443 5.64882 17.0945C5.64747 17.071 5.65018 17.0464 5.65288 17.0216C5.67431 16.9007 5.76274 16.7415 6.04246 16.6591C6.19901 16.5878 6.36324 16.4985 6.39685 16.4464C6.40113 16.4396 6.43948 16.3832 6.43948 16.3832L6.47039 16.3514C6.5137 16.3077 6.88388 15.9161 7.24796 16.0659C7.35105 16.0659 7.43677 16.034 7.48279 16.0027C7.49182 15.956 7.52114 15.7746 7.52114 15.7746H8.31721C8.37068 15.5671 8.40181 15.3605 8.40023 15.2292C8.40023 15.2197 8.39752 15.2168 8.39617 15.2053C8.29037 15.1784 8.18322 15.1536 8.18322 15.1536L8.08915 15.1207L8.02734 15.0575C8.00614 15.0368 7.9793 15.0072 7.88523 15.0871L7.80966 15.1522L6.28158 15.2799L6.2315 15.0038C6.19789 14.8141 6.21571 14.1644 7.87417 13.7455C7.99509 13.7015 8.31451 13.5396 8.39279 13.2786L8.40993 13.2195H7.12006V12.5793C6.52678 12.7002 5.98471 12.7902 5.81643 12.7633L5.70386 12.7435L5.63033 12.6562C5.60619 12.6287 5.43317 12.4157 5.43046 12.111C5.43046 12.0492 5.43655 11.9826 5.45324 11.9138C5.53355 11.5691 5.82478 11.2883 6.32128 11.0713C6.54596 10.9758 6.89335 10.7861 7.12006 10.5865V9.91539C6.90102 9.9675 6.6998 9.97179 6.54731 9.89555L6.504 9.87299L6.46745 9.83802C6.4573 9.83261 6.33098 9.702 6.32805 9.48228C6.32669 9.32505 6.39527 9.1209 6.61228 8.88472C6.66394 8.77328 6.81756 8.47394 7.11983 8.17256V6.85314H9.47693C9.56738 6.72388 9.62513 6.57207 9.62175 6.39769C9.62175 6.39228 9.62175 6.38596 9.62039 6.37897C9.47535 6.39205 9.21367 6.45251 8.79071 6.70516L8.6795 6.77328L8.55317 6.74035C8.40542 6.70268 7.91591 6.54252 7.88365 6.14301C7.8823 6.13196 7.88094 6.12023 7.88094 6.1094C7.87824 5.78727 8.183 5.5256 8.46881 5.38348C8.46881 5.38348 8.4661 5.38213 8.4661 5.38055C8.42076 5.32709 8.35218 5.10376 8.3603 5.06812C8.37338 4.6799 8.84304 4.38461 9.26059 4.06541C9.27932 4.04759 9.29826 4.02616 9.31699 4.00767C9.26195 3.97135 9.21254 3.92736 9.17758 3.86262C9.14397 3.80081 9.1275 3.74035 9.1275 3.67719C9.12389 3.43672 9.10066 3.08504 9.64182 2.7178C9.61633 2.68283 9.55723 2.59824 9.55723 2.59824C9.52633 2.55357 9.40677 2.261 9.40542 2.0494C9.40406 1.97113 9.42121 1.89082 9.46181 1.81051C9.52768 1.68283 9.58272 1.5335 9.92606 1.5247C9.92335 1.5247 10.0134 1.5247 10.0134 1.5247C10.0228 1.52335 10.1383 1.27589 10.2213 1.11527C10.2186 1.10693 10.2186 1.09881 10.2159 1.09181H4.9202L1.04111 4.96413V15.5987L4.34181 18.9023H6.02577C6.16044 18.6481 6.50941 18.2621 7.4097 18.111C7.42076 18.108 7.81237 18.0049 8.02734 17.7507Z" id="Vector_3"></path>
<path fill="white" d="M5.81807 23.8248L5.6746 24.0802L5.60241 24.1228C5.41292 24.2367 4.9356 24.4786 4.61211 24.2767C4.52346 24.2189 4.38202 24.0885 4.37706 23.8181C4.37706 23.7919 4.37841 23.7657 4.38044 23.7371L4.38315 23.7053L4.39285 23.6723C4.42781 23.5571 4.61527 22.9857 4.9286 22.3757H1.04681V27.1821L4.35382 30.5406H6.10929L6.32021 30.1025C6.34976 30.0448 6.61956 29.5147 7.15666 29.3965L7.39442 29.3511C7.50564 29.3333 7.50564 29.3333 7.79686 29.1479C7.88551 29.093 7.97823 28.9406 8.05447 28.7538C8.20494 28.387 8.36081 27.9803 8.92386 27.7416C9.09959 27.6674 9.1526 27.6342 9.30013 27.5959C9.39487 27.5713 9.51849 27.5205 9.55481 27.4998C9.59609 27.4738 9.70392 27.4064 9.78287 26.8158C9.80272 26.6617 9.83227 26.2979 9.84062 25.8542C9.84062 25.8542 9.85009 25.324 9.85009 25.3184C9.85009 25.3184 9.85145 25.2898 9.85145 25.2882C9.84874 25.2911 9.8219 25.3267 9.8219 25.3267L9.83205 24.9834H7.40999V23.1934C7.19772 23.3432 6.90672 23.4889 6.61549 23.4531C6.43954 23.4607 5.97665 23.5528 5.81807 23.8248Z" id="Vector_4"></path>
<path fill="white" d="M15.2118 30.1391L15.2585 30.5402H16.3916L19.6889 27.2354V16.4527L16.3004 13.2235H12.9743C13.0656 13.2826 13.1583 13.3388 13.2601 13.3834C13.9138 13.6747 14.291 14.15 14.3115 14.4502C14.3115 14.457 14.3115 14.464 14.3115 14.4721C14.3129 14.5964 14.2524 14.7496 14.0724 14.8339C13.9488 14.893 13.4899 14.9672 13.2578 14.8675C13.0455 14.845 12.6801 14.8084 12.2847 14.7735C12.4805 15.1685 12.8067 15.3751 13.3663 15.7056C13.3663 15.7056 13.718 15.9172 13.8182 15.9774C14.4638 16.0324 15.2247 16.189 15.355 16.6273C15.3661 16.667 15.3749 16.7137 15.3749 16.7604C15.3776 16.9088 15.3083 17.0956 15.0584 17.2867C14.8852 17.4252 14.7 17.6068 14.6704 17.6726C14.6627 17.6945 14.6395 17.7687 14.6395 17.7687L14.5619 17.8294C14.3634 17.9776 13.8811 18.1536 13.4369 17.7922C13.0399 17.5328 12.5689 17.3279 12.3875 17.3268C12.3832 17.346 12.3772 17.3679 12.3772 17.3679L12.3476 17.4119C12.3311 17.4407 12.3214 17.4807 12.3214 17.5298C12.3241 17.7166 12.4732 18.0464 13.0302 18.4748C13.0934 18.5104 13.6731 18.8556 14.1888 18.7825L14.2368 18.7744L14.2862 18.7838C14.3927 18.803 14.9244 18.9199 15.0273 19.3361C15.0931 19.6092 14.947 19.8923 14.5966 20.1696C14.5842 20.1836 14.5711 20.1971 14.5617 20.2136C14.5885 20.2273 14.633 20.2438 14.7024 20.2645C14.9023 20.307 16.1186 20.6535 16.4166 22.7631C16.4593 22.9334 16.4421 23.1642 16.2607 23.3097C15.9641 23.5474 15.508 23.3401 15.1455 23.1312L15.1256 23.1202L15.1064 23.1037C14.8599 22.9075 14.5673 22.7123 14.3016 22.5598V24.9801H11.7099L11.7476 26.0599V26.0762C11.7476 26.0805 11.6982 26.2481 11.7785 26.6505C11.9235 27.3566 12.1543 27.9142 12.4103 28.0448C13.0794 28.3841 13.2894 28.5544 13.4563 28.7507C13.5903 28.9088 13.6693 29.0035 14.0613 29.1314C14.9756 29.436 15.1671 29.7121 15.2118 30.1391Z" id="Vector_5"></path>
<path fill="white" d="M12.3383 17.4226L12.3466 17.4116V17.4089L12.3383 17.4226Z" id="Vector_6"></path>
<path fill="white" d="M55.1078 19.3428C52.7769 20.2 52.5055 21.9733 52.5055 22.9746C52.5055 23.8262 52.7864 26.6051 56.4464 26.6051C58.1441 26.6051 59.2301 25.8302 59.8254 25.2108C60.074 26.068 60.8197 26.5762 61.8926 26.5762C63.1315 26.5762 63.8267 25.9541 64.5581 25.0734L64.7058 24.8826L64.2614 24.3757L64.0437 24.5625C63.9339 24.6559 63.7999 24.6971 63.6021 24.6971C62.8103 24.6971 62.6578 23.9584 62.6578 23.0035C62.6578 22.6243 62.6722 22.0021 62.6887 21.2852C62.7126 20.244 62.7408 18.9473 62.7408 17.7865C62.7408 16.4639 62.6975 15.1993 62.1301 14.2853C61.3693 13.1321 60.1446 12.5957 58.2621 12.5957C55.3632 12.5957 54.0411 14.3807 53.7092 15.4314L53.642 15.6394L54.3185 16.0448L54.4647 15.7687C54.4701 15.7547 55.2195 14.3628 57.0444 14.3628C58.2849 14.3628 59.2003 14.9618 59.5211 15.9157C59.6806 16.4143 59.6806 16.6065 59.6806 17.4116V17.8402C58.0275 18.3565 57.5132 18.4583 55.1078 19.3428ZM59.6835 24.0788C58.9603 24.5968 58.1333 24.7026 57.5551 24.7026C55.801 24.7026 55.5394 23.4759 55.5394 22.7466C55.5394 21.8124 55.9461 21.0172 56.7187 20.6243C57.2757 20.3457 57.8856 20.0448 59.6837 19.505V24.0788H59.6835Z" id="Vector_7"></path>
<path fill="white" d="M29.641 25.9306C31.0105 26.3757 32.3427 26.5677 34.0955 26.5677C36.0556 26.5677 40.6146 26.0403 40.6146 21.1476C40.6146 18.2589 38.9744 17.163 37.232 16.0008L35.1869 14.6466C33.4045 13.4696 32.59 12.9295 32.59 11.3403C32.59 10.1838 32.9387 8.64055 35.936 8.64055C37.2108 8.64055 38.416 8.89816 38.9606 9.44271C39.3556 9.84177 39.5652 10.3583 39.6143 11.0752L39.6308 11.3403H40.3163L40.2951 10.918C40.2723 10.3514 40.2827 9.80116 40.2827 9.16931C40.2827 8.37053 40.3019 7.63356 40.3019 7.62679L40.3109 7.38587L40.0671 7.34256C39.9929 7.33309 38.2038 7.02742 35.8796 7.02742C30.2212 7.02742 29.7835 10.8282 29.7835 11.9902C29.7835 14.3685 30.9256 15.5616 33.1695 17.045L34.7842 18.1233L35.0285 18.2909C36.5579 19.3209 37.6658 20.0682 37.6658 21.8569C37.6658 23.95 36.4679 24.9227 33.8938 24.9227C32.6671 24.9227 31.3452 24.5352 30.7709 23.8855C30.3964 23.4639 30.1939 22.865 30.1589 22.2564L30.1451 21.9735L29.3477 21.9719L29.387 22.6477C29.4152 23.0653 29.4434 23.5762 29.4434 24.8853V25.8648L29.641 25.9306Z" id="Vector_8"></path>
<path fill="white" d="M51.1862 14.6595V12.9884H46.5907V9.95141H46.0015L45.6978 10.468C45.6821 10.4914 44.7845 12.1919 43.4863 13.198C43.1195 13.4817 42.803 13.7152 41.974 14.0586L41.7982 14.1305V14.6595H43.5819L43.5708 15.6011C43.5481 17.6067 43.5289 19.3371 43.5289 21.4939C43.5289 22.2769 43.5289 23.5787 43.7425 24.2435C44.2528 25.9112 45.412 26.6545 47.4993 26.6545C49.9525 26.6545 50.9931 25.2972 51.0412 25.2437L51.158 25.1134L50.9218 24.5625L50.643 24.7055C50.6376 24.7136 49.9218 25.0734 48.9906 25.0734C46.9843 25.0734 46.5909 23.8675 46.5909 21.7468V14.6611H51.1865V14.6595H51.1862Z" id="Vector_9"></path>
<path fill="white" d="M76.2207 22.9939C76.1889 23.891 76.163 24.928 75.7262 25.3674C75.4928 25.5995 75.13 25.7466 74.6067 25.829L74.3637 25.8592V26.4843L74.6755 26.4554C75.8801 26.3401 76.7427 26.3401 77.74 26.3401C78.6137 26.3401 79.4488 26.3868 80.4199 26.4362L81.0889 26.4705V25.84L80.8223 25.8206C80.435 25.796 79.9886 25.6368 79.7783 25.4416C79.3594 25.0516 79.273 24.4252 79.273 22.1971V18.2578C79.273 17.5984 79.2277 16.3541 79.0973 15.8432C78.6452 13.7793 77.0574 12.644 74.622 12.644C72.7621 12.644 71.3915 13.4331 70.71 13.9393V12.8707L70.4447 12.7142L70.2895 12.7834C70.1248 12.8619 69.6633 13.1378 68.8693 13.2628C67.8307 13.4653 66.8465 13.5188 66.4303 13.5188C66.3443 13.5188 66.2785 13.5188 66.2248 13.512L65.9198 13.4892V14.2598L66.1738 14.288C66.2074 14.2894 66.2458 14.2948 66.285 14.2964C66.6112 14.3189 67.2216 14.3609 67.4973 14.7593C67.7395 15.1191 67.7644 15.8321 67.7644 17.4913V21.3482C67.7644 23.6489 67.7398 24.799 67.3215 25.2659C66.9223 25.7148 66.3509 25.8044 66.1251 25.8235L65.8661 25.8427V26.4856L66.1684 26.4554C67.3777 26.3428 68.292 26.3428 69.2699 26.3428C70.116 26.3428 70.929 26.3868 71.8632 26.4335L72.583 26.4719V25.8414L72.3177 25.8222C71.9263 25.796 71.4867 25.6368 71.2739 25.4416C70.8575 25.0541 70.7671 24.4265 70.7671 22.1985V15.1107C71.3344 14.8181 72.0896 14.5427 73.2945 14.5427C75.0472 14.5427 75.9565 15.3552 76.1596 17.0997C76.2694 18.1312 76.2694 19.1779 76.2694 20.1863C76.2694 20.9621 76.2694 22.0227 76.246 22.5267C76.2318 22.6916 76.2234 22.8454 76.2207 22.9939Z" id="Vector_10"></path>
<path fill="white" d="M88.2837 7.20456C88.6408 6.84454 89.2205 6.71822 89.6435 6.71822C90.6613 6.71822 91.4046 7.16532 91.9183 8.31036L91.9895 8.47932L92.3124 8.47504L93.6503 6.614L93.6106 6.32819L93.5061 6.24427C92.7768 5.65302 91.528 5.2154 90.2122 5.2154C87.1504 5.2154 85.3291 6.6282 84.7947 9.41435C84.6325 10.2524 84.5968 11.7969 84.5939 12.9925C84.2478 13.2639 83.7753 13.5145 83.0114 13.829L82.8357 13.9052V14.6607H84.5939V21.3507C84.5939 23.6514 84.5747 24.7888 84.1558 25.256C83.7574 25.7065 83.1874 25.7958 82.9568 25.8095L82.6945 25.833V26.4881L83.0063 26.4579C84.2138 26.3451 85.3523 26.3451 86.3523 26.3451C87.1517 26.3451 88.256 26.3807 89.7423 26.4579L90.0417 26.4757V25.7545H89.7558C89.4182 25.7545 88.2684 25.7132 87.8948 25.1448C87.657 24.7958 87.5993 23.9305 87.5993 22.1477V14.662H90.6074V12.9912H87.5997V10.3821C87.5997 8.65753 87.6986 7.78543 88.2837 7.20456Z" id="Vector_11"></path>
<path fill="white" d="M98.216 26.7107C103.283 26.7107 105.081 22.8179 105.081 19.4775C105.081 15.1829 102.62 12.6158 98.5005 12.6158C93.4319 12.6158 91.6381 16.5107 91.6381 19.8499C91.6381 24.1463 94.0994 26.7107 98.216 26.7107ZM96.4757 14.7888C96.9456 14.3821 97.5896 14.1768 98.3852 14.1768C101.706 14.1768 101.874 18.7137 101.874 19.6232C101.874 21.9776 101.327 23.6341 100.245 24.5407C99.7669 24.9474 99.1215 25.1533 98.3327 25.1533C95.0074 25.1533 94.8409 20.6151 94.8409 19.7085C94.844 17.3539 95.3909 15.6959 96.4757 14.7888Z" id="Vector_12"></path>
<path fill="white" d="M112.764 14.9136C113.989 14.9136 114.622 15.5035 114.937 15.9982L115.022 16.1285H115.569L116.706 14.0489V13.6237L116.614 13.5364C116.058 13.0392 115.294 12.7859 114.353 12.7859C112.907 12.7859 111.879 13.4329 111.233 14.0419V12.8703L110.995 12.7446L110.838 12.8152C110.61 12.9237 110.049 13.092 109.393 13.2005C108.355 13.4044 107.373 13.4568 106.954 13.4568C106.869 13.4568 106.782 13.4554 106.733 13.4498L106.443 13.4421V14.2594L106.707 14.2876C106.734 14.2889 106.773 14.2944 106.811 14.2959C107.14 14.3185 107.748 14.3604 108.024 14.7588C108.265 15.1186 108.284 15.8317 108.284 17.4908V21.3478C108.284 23.6485 108.267 24.757 107.848 25.2242C107.454 25.6749 106.877 25.7653 106.65 25.7807L106.385 25.8012V26.4852L106.699 26.4549C107.905 26.3424 109.039 26.3424 110.045 26.3424C110.839 26.3424 111.947 26.378 113.432 26.4549L113.731 26.4728V25.7243H113.45C113.108 25.7243 111.968 25.6803 111.586 25.1159C111.354 24.7669 111.295 23.9275 111.295 22.1461V15.3456C111.72 15.053 112.203 14.9136 112.764 14.9136Z" id="Vector_13"></path>
<path fill="white" d="M131.636 25.285C131.316 25.2589 130.728 25.1944 130.45 24.7906C130.211 24.4662 130.19 23.4472 130.19 21.8016V10.8025C130.19 9.01752 130.201 6.64193 130.291 5.52801L130.302 5.39627L130.071 5.25686L129.937 5.30897C129.662 5.4098 129.135 5.52801 128.602 5.61396C127.335 5.86458 125.776 5.99519 125.712 5.99519H125.426L125.367 6.59884L125.624 6.62343C125.654 6.62704 125.69 6.62952 125.731 6.6311C126.052 6.65659 126.644 6.70125 126.918 7.09534C127.157 7.45515 127.18 8.35431 127.18 10.0362V12.9029C126.599 12.7786 125.629 12.6467 124.544 12.6467C121.583 12.6467 119.234 14.0491 118.105 16.4982C117.625 17.5544 117.368 18.81 117.368 20.1287C117.368 24.112 119.764 26.6807 123.467 26.6807C125.242 26.6807 126.569 25.9088 127.239 25.4143V26.5544L127.6 26.6753L127.723 26.6205C127.962 26.5106 128.442 26.4156 129.099 26.3085C130.242 26.1136 131.418 26.0324 131.72 26.0324H132.003V25.3069L131.747 25.2961C131.717 25.2904 131.678 25.2877 131.636 25.285ZM127.179 24.2027C126.405 24.6834 125.514 24.7547 125.038 24.7547H124.915C120.997 24.7547 120.571 21.2643 120.571 19.763C120.571 16.0626 121.856 14.2611 124.485 14.2611C126.14 14.2611 126.959 14.9478 127.179 15.1671V24.2027Z" id="Vector_14"></path>
</g>
</svg>
