<svg xmlns="http://www.w3.org/2000/svg" fill="none" viewBox="0 0 152 63" height="63" width="152">
<g clip-path="url(#clip0_873_22)">
<mask height="63" width="152" y="0" x="0" maskUnits="userSpaceOnUse" style="mask-type:luminance" id="mask0_873_22">
<path fill="white" d="M0 0H151.2V63H0V0Z"></path>
</mask>
<g mask="url(#mask0_873_22)">
<path fill="white" d="M150.303 35.9881H129.987C130.453 40.8517 134.016 42.4091 138.061 42.4091C142.181 42.4091 145.502 41.4868 148.254 40.0151V48.3739C145.434 50.1682 141.71 51.1636 136.75 51.1636C126.645 51.1636 119.561 44.8333 119.561 32.319C119.561 21.7476 125.567 13.356 135.44 13.356C145.298 13.356 150.444 21.6216 150.444 32.251C150.444 33.2539 150.351 35.4262 150.303 35.9881ZM135.374 21.8156C132.779 21.8156 129.896 23.6502 129.896 28.3273H140.626C140.626 23.6552 137.925 21.8156 135.374 21.8156ZM103.207 51.1636C99.5753 51.1636 97.3552 49.6289 95.8633 48.5377L95.8432 60.1978L85.4633 62.4053V14.0465H94.9208L95.1401 16.6093C96.6596 15.2762 99.1998 13.356 103.267 13.356C110.557 13.356 117.422 19.9206 117.422 32.004C117.422 45.1886 110.631 51.1636 103.207 51.1636ZM100.787 22.5464C98.406 22.5464 96.9142 23.4184 95.8331 24.6028L95.8936 40.0252C96.9016 41.1163 98.3556 41.9933 100.79 41.9933C104.628 41.9933 107.198 37.8176 107.198 32.2308C107.198 26.8002 104.583 22.5464 100.787 22.5464ZM71.1522 14.044H81.5724V50.4252H71.1547L71.1522 14.044ZM71.1522 2.21508L81.5724 0V8.46216L71.1547 10.6772L71.1522 2.21508ZM60.2784 25.7594V50.4202H49.9061V14.044H59.1973L59.53 17.1108C62.0575 12.6454 67.2714 13.55 68.6524 14.049V23.5872C67.3319 23.1588 62.8841 22.5086 60.2784 25.7594ZM38.7248 37.6589C38.7248 43.7774 45.2768 41.8723 46.6049 41.3406V49.7876C45.2189 50.5487 42.714 51.1636 39.3221 51.1636C33.1607 51.1636 28.5415 46.6276 28.5415 40.4838L28.5869 7.28028L38.7173 5.12568L38.7248 14.0465H46.6074V22.8967H38.7248V37.6589ZM26.3592 39.4304C26.3592 46.8997 20.538 51.1636 11.9095 51.1636C8.33112 51.1636 4.54356 50.468 0.68544 48.8099V38.9012C4.16808 40.7938 8.48232 42.215 11.9196 42.215C14.233 42.215 15.7752 41.5951 15.7752 39.6774C15.7752 34.7231 0 36.5879 0 25.0992C0 17.7534 5.73552 13.356 14.1548 13.356C17.5921 13.356 21.0294 13.8852 24.4667 15.2536V25.0286C21.3091 23.3251 17.2998 22.3574 14.1448 22.3574C11.97 22.3574 10.4958 22.9874 10.4958 24.6053C10.4958 29.2774 26.3592 27.0572 26.3592 39.4304Z" clip-rule="evenodd" fill-rule="evenodd"></path>
</g>
</g>
<defs>
<clipPath id="clip0_873_22">
<rect fill="white" height="63" width="151.2"></rect>
</clipPath>
</defs>
</svg>
