<svg xmlns="http://www.w3.org/2000/svg" width="880" height="340" viewBox="0 0 880 340" role="img" aria-label="wigolo GitHub stars: 0 to 579 between July 1 and July 17 2026, with a sharp spike over the final 48 hours">
<defs>
<linearGradient id="ardark" x1="0" y1="0" x2="0" y2="1">
<stop offset="0" stop-color="#7c3aed" stop-opacity="0.34"/>
<stop offset="1" stop-color="#7c3aed" stop-opacity="0"/>
</linearGradient>
<filter id="gldark" x="-40%" y="-40%" width="180%" height="180%"><feGaussianBlur stdDeviation="3" result="b"/><feMerge><feMergeNode in="b"/><feMergeNode in="SourceGraphic"/></feMerge></filter>
</defs>
<rect width="880" height="340" rx="14" fill="#0d1117"/>
<text x="64" y="30" fill="#c9d1d9" font-size="15" font-weight="700" font-family="-apple-system,BlinkMacSystemFont,'Segoe UI',Helvetica,Arial,sans-serif">GitHub stars</text>
<text x="64" y="30" fill="#a78bfa" font-size="15" font-weight="700" font-family="-apple-system,BlinkMacSystemFont,'Segoe UI',Helvetica,Arial,sans-serif" opacity="0"></text>
<text x="852" y="30" fill="#a78bfa" font-size="14" font-weight="700" font-family="ui-monospace,SFMono-Regular,Menlo,Consolas,monospace" text-anchor="end">579★</text>
<line x1="64" y1="296.0" x2="852" y2="296.0" stroke="#21262d" stroke-width="1"/><line x1="64" y1="235.0" x2="852" y2="235.0" stroke="#21262d" stroke-width="1"/><line x1="64" y1="174.0" x2="852" y2="174.0" stroke="#21262d" stroke-width="1"/><line x1="64" y1="113.0" x2="852" y2="113.0" stroke="#21262d" stroke-width="1"/><line x1="64" y1="52.0" x2="852" y2="52.0" stroke="#21262d" stroke-width="1"/><text x="52" y="300.0" fill="#8b949e" font-size="11" font-family="ui-monospace,SFMono-Regular,Menlo,Consolas,monospace" text-anchor="end">0</text><text x="52" y="239.0" fill="#8b949e" font-size="11" font-family="ui-monospace,SFMono-Regular,Menlo,Consolas,monospace" text-anchor="end">150</text><text x="52" y="178.0" fill="#8b949e" font-size="11" font-family="ui-monospace,SFMono-Regular,Menlo,Consolas,monospace" text-anchor="end">300</text><text x="52" y="117.0" fill="#8b949e" font-size="11" font-family="ui-monospace,SFMono-Regular,Menlo,Consolas,monospace" text-anchor="end">450</text><text x="52" y="56.0" fill="#8b949e" font-size="11" font-family="ui-monospace,SFMono-Regular,Menlo,Consolas,monospace" text-anchor="end">600</text><text x="64.0" y="318" fill="#8b949e" font-size="10.5" font-family="ui-monospace,SFMono-Regular,Menlo,Consolas,monospace" text-anchor="middle">07-01</text><text x="211.8" y="318" fill="#8b949e" font-size="10.5" font-family="ui-monospace,SFMono-Regular,Menlo,Consolas,monospace" text-anchor="middle">07-04</text><text x="359.5" y="318" fill="#8b949e" font-size="10.5" font-family="ui-monospace,SFMono-Regular,Menlo,Consolas,monospace" text-anchor="middle">07-07</text><text x="507.2" y="318" fill="#8b949e" font-size="10.5" font-family="ui-monospace,SFMono-Regular,Menlo,Consolas,monospace" text-anchor="middle">07-10</text><text x="655.0" y="318" fill="#8b949e" font-size="10.5" font-family="ui-monospace,SFMono-Regular,Menlo,Consolas,monospace" text-anchor="middle">07-13</text><text x="802.8" y="318" fill="#8b949e" font-size="10.5" font-family="ui-monospace,SFMono-Regular,Menlo,Consolas,monospace" text-anchor="middle">07-16</text><text x="852.0" y="318" fill="#8b949e" font-size="10.5" font-family="ui-monospace,SFMono-Regular,Menlo,Consolas,monospace" text-anchor="middle">07-17</text>
<path d="M64.0 295.6 L113.2 294.0 L162.5 294.0 L211.8 294.0 L261.0 294.0 L310.2 294.0 L359.5 294.0 L408.8 294.0 L458.0 293.6 L507.2 292.7 L556.5 291.5 L605.8 281.4 L655.0 261.4 L704.2 256.6 L753.5 250.5 L802.8 114.6 L852.0 60.5 L852.0 296.0 L64.0 296.0 Z" fill="url(#ardark)"/>
<path d="M64.0 295.6 L113.2 294.0 L162.5 294.0 L211.8 294.0 L261.0 294.0 L310.2 294.0 L359.5 294.0 L408.8 294.0 L458.0 293.6 L507.2 292.7 L556.5 291.5 L605.8 281.4 L655.0 261.4 L704.2 256.6 L753.5 250.5 L802.8 114.6 L852.0 60.5" fill="none" stroke="#a78bfa" stroke-width="2.6" stroke-linejoin="round" stroke-linecap="round" filter="url(#gldark)"/>
<circle cx="852.0" cy="60.5" r="5.5" fill="#c4b5fd" stroke="#0d1117" stroke-width="2"/>
<g transform="translate(666,53)">
<rect x="0" y="0" width="176" height="34" rx="8" fill="#161b22" stroke="#30363d" stroke-width="1"/>
<text x="14" y="15" fill="#a78bfa" font-size="12" font-weight="700" font-family="-apple-system,BlinkMacSystemFont,'Segoe UI',Helvetica,Arial,sans-serif">+467 stars in 48h</text>
<text x="14" y="28" fill="#8b949e" font-size="10.5" font-family="ui-monospace,SFMono-Regular,Menlo,Consolas,monospace">Jul 16 – Jul 17, 2026</text>
</g>
</svg>