<svg width="24" height="24" viewBox="0 0 24 24" fill="none" xmlns="http://www.w3.org/2000/svg">
<path fill-rule="evenodd" clip-rule="evenodd" d="M6.92 1.04199C6.155 1.09099 5.674 1.20399 5.18 1.45099C4.089 1.99599 3.357 2.96099 3.124 4.15999C3.012 4.73799 3 5.46999 3 12C3 19.433 3.002 19.515 3.245 20.32C3.577 21.422 4.578 22.423 5.68 22.755C6.46 22.99 6.716 23 12 23C17.284 23 17.54 22.99 18.32 22.755C19.422 22.423 20.425 21.421 20.755 20.32C20.998 19.508 21.007 19.273 20.991 13.62C20.978 9.00999 20.971 8.59999 20.907 8.35999C20.796 7.95099 20.596 7.36199 20.559 7.33999C20.541 7.32799 20.423 7.17099 20.298 6.98899C20.128 6.74399 19.467 6.05799 17.705 4.29499C15.458 2.04799 15.03 1.65299 14.584 1.41099C14.374 1.29699 13.583 1.08199 13.227 1.04299C12.792 0.993991 7.667 0.992991 6.92 1.04199ZM12.875 3.02499L13 3.04999L13.001 5.09499C13.001 7.31999 13.014 7.48199 13.227 7.91899C13.366 8.20499 13.795 8.63399 14.081 8.77299C14.518 8.98599 14.679 8.99899 16.908 8.99899L18.955 8.99999L18.98 9.16999C18.994 9.26399 18.998 11.563 18.99 14.28C18.973 19.648 18.98 19.485 18.752 19.952C18.626 20.211 18.19 20.638 17.918 20.768C17.471 20.983 17.547 20.98 12 20.98C6.462 20.98 6.533 20.983 6.082 20.771C5.812 20.643 5.377 20.217 5.248 19.952C5.198 19.849 5.126 19.633 5.088 19.472C5.025 19.202 5.02 18.63 5.02 12C5.02 5.36999 5.025 4.79799 5.088 4.52799C5.175 4.15499 5.294 3.91799 5.52 3.66699C5.884 3.26099 6.283 3.08999 6.98 3.03999C7.482 3.00499 12.705 2.99099 12.875 3.02499ZM16.3 5.71999L17.58 6.99999H16.29H15V5.71999C15 5.01599 15.005 4.43999 15.01 4.43999C15.016 4.43999 15.596 5.01599 16.3 5.71999Z" fill="white"/>
</svg>
