<svg width="40" height="46" viewBox="0 0 40 46" fill="none" xmlns="http://www.w3.org/2000/svg">
<path d="M35.6386 34.654C34.466 34.1737 33.9645 33.5365 34.013 32.5856C34.0629 31.4757 33.4332 30.6627 33.1342 30.3415C33.3149 29.6514 33.8428 27.2641 33.1347 25.1905C32.3738 22.971 30.0507 19.5811 27.6537 16.2489C26.6724 14.8805 26.626 13.393 26.5724 11.6706C26.521 10.0278 26.463 8.16567 25.5469 6.0956C24.5508 3.84159 22.552 2.54907 20.0628 2.54907C18.5821 2.54907 17.0621 3.01186 15.8924 3.81865C13.4972 5.47169 13.8138 9.07577 14.0233 11.4606C14.052 11.7872 14.079 12.0957 14.0948 12.359C14.2343 14.6947 14.1074 15.9258 13.9414 16.2999C13.834 16.5444 13.3054 17.2403 12.746 17.9771C12.1675 18.739 11.5116 19.6027 10.9739 20.4076C10.3325 21.376 9.81461 22.8562 9.3138 24.2877C8.94738 25.3352 8.60127 26.3246 8.26434 26.9159C7.62576 28.0533 7.78465 29.1139 7.91732 29.6041C7.67557 29.772 7.32632 30.1027 7.03148 30.7259C6.67515 31.4863 5.95213 31.895 4.44867 32.184C3.75777 32.3254 3.28135 32.6159 3.03226 33.0475C2.66977 33.6756 2.86721 34.4648 3.04734 35.0041C3.31347 35.797 3.14763 36.2989 2.8461 37.21C2.77662 37.4203 2.69783 37.6584 2.61799 37.921C2.49226 38.3354 2.53762 38.7122 2.7525 39.0408C3.32029 39.9089 4.97714 40.215 6.68275 40.4163C7.70114 40.5372 8.81575 40.9445 9.89379 41.3386C10.9501 41.7246 12.0423 42.1238 13.0351 42.2449C13.186 42.2639 13.3354 42.2735 13.4795 42.2735C14.9785 42.2735 15.6558 41.2788 15.8705 40.8702C16.4089 40.7603 18.266 40.4085 20.1799 40.3613C22.0908 40.3067 23.9397 40.684 24.4635 40.8014C24.6282 41.1165 25.0622 41.8364 25.7542 42.2073C26.1345 42.4152 26.6637 42.5344 27.2058 42.5344H27.206C27.7849 42.5344 28.8863 42.3975 29.758 41.4805C30.6274 40.5591 32.7998 39.3829 34.3861 38.524C34.74 38.3324 35.0712 38.153 35.3616 37.9911C36.2527 37.4971 36.7389 36.7913 36.6955 36.0546C36.6594 35.4428 36.2544 34.9061 35.6386 34.654ZM15.9119 34.4766C15.801 33.6952 14.7959 32.9203 13.6319 32.023C12.6801 31.2893 11.6012 30.4577 11.304 29.7534C10.6898 28.3006 11.174 25.746 12.0181 24.4305C12.4353 23.7718 12.776 22.773 13.1056 21.807C13.4614 20.764 13.8294 19.6856 14.2409 19.2135C14.8926 18.4764 15.4949 17.0423 15.6016 15.9121C16.2119 16.4947 17.1586 17.234 18.0332 17.234C18.1678 17.234 18.2985 17.2164 18.4234 17.1812C19.0218 17.0084 19.9019 16.4998 20.753 16.0082C21.4867 15.5842 22.3916 15.0614 22.732 15.0138C23.3158 15.8521 26.7081 23.359 27.0547 25.7698C27.3289 27.6773 27.0392 29.2542 26.8936 29.8718C26.7764 29.8558 26.6366 29.8428 26.4898 29.8428C25.5449 29.8428 25.2948 30.3586 25.2296 30.6665C25.0621 31.4666 25.0444 34.0251 25.0426 34.5999C24.7009 35.034 22.9731 37.0781 20.4926 37.4456C19.4822 37.5924 18.5387 37.6669 17.6884 37.6669C16.9615 37.6669 16.4977 37.6108 16.3051 37.5816L15.0586 36.1553C15.5501 35.9127 16.0415 35.4006 15.9119 34.4766ZM17.4937 10.959C17.4547 10.9758 17.4165 10.9938 17.3788 11.0129C17.375 10.9285 17.3662 10.8429 17.3527 10.757C17.2167 9.97367 16.6972 9.40509 16.1179 9.40509C16.075 9.40509 16.0319 9.40837 15.9846 9.41558C15.6399 9.473 15.3696 9.73193 15.2214 10.099C15.3514 9.29353 15.8077 8.69715 16.3492 8.69715C16.985 8.69715 17.5221 9.55402 17.5221 10.5682C17.5221 10.696 17.5128 10.8232 17.4937 10.959ZM22.4343 11.563C22.4925 11.3776 22.524 11.177 22.524 10.9689C22.524 10.0493 21.9406 9.32892 21.1958 9.32892C20.4679 9.32892 19.8758 10.0645 19.8758 10.9689C19.8758 11.0305 19.8788 11.0922 19.8845 11.1538C19.846 11.139 19.8084 11.1246 19.7717 11.1107C19.6879 10.857 19.6456 10.5923 19.6456 10.3221C19.6456 9.2226 20.3482 8.32797 21.2122 8.32797C22.076 8.32797 22.7788 9.2226 22.7788 10.3221C22.7788 10.7795 22.6526 11.2161 22.4343 11.563ZM21.7973 13.7031C21.7848 13.7587 21.7584 13.7833 21.4655 13.9357C21.3176 14.0126 21.1335 14.1084 20.9032 14.2487L20.7493 14.3419C20.1308 14.7169 18.6825 15.5951 18.2893 15.6466C18.0223 15.6826 17.8571 15.579 17.4857 15.3266C17.4019 15.2696 17.3128 15.209 17.2177 15.1481C16.5482 14.7088 16.1175 14.2249 16.0689 14.0357C16.2872 13.867 16.8282 13.4447 17.1052 13.1947C17.6675 12.6718 18.2333 12.3205 18.5134 12.3205C18.5282 12.3205 18.5416 12.3215 18.5555 12.3242C18.8845 12.3822 19.6962 12.7062 20.289 12.9427C20.563 13.052 20.7996 13.1464 20.9661 13.2062C21.4907 13.3863 21.7641 13.6168 21.7973 13.7031ZM26.51 38.1362C26.8059 36.8015 27.1467 34.9858 27.0915 33.9153C27.0788 33.6721 27.0573 33.4075 27.0365 33.1515C26.9975 32.673 26.9397 31.9618 26.9994 31.7509C27.0112 31.7454 27.0243 31.7406 27.0388 31.7366C27.0413 32.3486 27.1742 33.5692 28.1504 33.9949C28.4413 34.1218 28.7738 34.1861 29.1385 34.1861C30.1164 34.1861 31.2014 33.7064 31.6458 33.2619C31.9075 33.0003 32.1276 32.6801 32.2818 32.4266C32.3155 32.5253 32.3362 32.6543 32.3253 32.8205C32.2672 33.7231 32.7059 34.9206 33.5407 35.3619L33.6623 35.4257C33.9596 35.5818 34.7494 35.9964 34.7621 36.1931C34.7621 36.1931 34.7554 36.2163 34.7113 36.2572C34.5135 36.438 33.8172 36.7935 33.1439 37.1374C31.9494 37.7473 30.5956 38.4386 29.9875 39.0781C29.1314 39.979 28.1631 40.5841 27.5784 40.5841C27.508 40.5841 27.4439 40.5752 27.3869 40.5571C26.7518 40.3592 26.2291 39.4429 26.51 38.1362ZM4.86386 34.7312C4.7991 34.4281 4.74797 34.1888 4.8029 33.957C4.84276 33.7853 5.69058 33.6012 6.05268 33.5227C6.56174 33.4122 7.08824 33.298 7.43251 33.089C7.89805 32.807 8.15016 32.2869 8.3725 31.8281C8.53349 31.4963 8.69973 31.1532 8.89756 31.0406C8.9087 31.034 8.92575 31.0264 8.95826 31.0264C9.32888 31.0264 10.1066 31.8055 10.5547 32.5029C10.6683 32.6787 10.8789 33.0309 11.1225 33.4388C11.851 34.6578 12.8485 36.3273 13.3695 36.8869C13.839 37.3899 14.599 38.357 14.412 39.1865C14.2752 39.8301 13.5465 40.3534 13.3746 40.4692C13.3122 40.4833 13.235 40.4905 13.1442 40.4905C12.147 40.4905 10.1732 39.6609 9.11269 39.2152L8.95577 39.1493C8.36359 38.901 7.39685 38.7445 6.46198 38.5933C5.71811 38.4728 4.69947 38.308 4.53061 38.1591C4.39374 38.0055 4.5525 37.5064 4.69252 37.0661C4.79333 36.7496 4.89743 36.4224 4.95446 36.0798C5.03534 35.5334 4.94017 35.0886 4.86386 34.7312Z" fill="black"/>
</svg>
