<svg width="154" height="33" viewBox="0 0 154 33" fill="none" xmlns="http://www.w3.org/2000/svg">
<path d="M44.6906 5.78448L37.718 23.2634H40.8136L42.1906 19.7653H49.5777L50.9309 23.2634H54.0993L47.1386 5.78448H44.6906ZM43.2646 16.9742L45.8849 10.2823L48.4814 16.9742H43.2646Z" fill="white"/>
<path d="M69.9458 10.8067C69.108 10.8067 68.3371 10.9998 67.63 11.386C66.923 11.7722 66.3986 12.2951 66.057 12.9516C65.3336 11.5212 64.0739 10.8067 62.278 10.8067C61.5546 10.8067 60.858 10.9626 60.1881 11.2761C59.5181 11.5895 58.9759 12.0916 58.5615 12.7808V11.0622H55.7942V23.2634H58.5615V16.4245C58.5615 15.4501 58.8274 14.7148 59.3592 14.2187C59.891 13.7226 60.5312 13.4745 61.2784 13.4745C62.1072 13.4745 62.7608 13.7359 63.2406 14.2603C63.7204 14.7846 63.9595 15.5051 63.9595 16.4231V23.262H66.7507V16.4231C66.7507 15.4486 67.0151 14.7133 67.5424 14.2172C68.0712 13.7211 68.7129 13.473 69.469 13.473C70.2889 13.473 70.9351 13.7344 71.4075 14.2588C71.8783 14.7831 72.1145 15.5036 72.1145 16.4216V23.2605H74.9428V15.8007C74.9428 14.2811 74.4823 13.0675 73.5599 12.1614C72.6374 11.2597 71.4327 10.8067 69.9458 10.8067Z" fill="white"/>
<path d="M87.707 11.6593C86.8173 11.0904 85.8399 10.8067 84.7748 10.8067C83.8004 10.8067 82.9418 11.0176 82.2035 11.4409C81.4638 11.8643 80.8696 12.4689 80.424 13.2576V11.0636H77.6567V27.5311H80.424V21.071C80.8711 21.8508 81.4638 22.4524 82.2035 22.8743C82.9433 23.2976 83.8004 23.5085 84.7748 23.5085C86.3924 23.5085 87.765 22.8921 88.8954 21.6622C90.0243 20.4307 90.5888 18.9334 90.5888 17.1702C90.5888 16.0161 90.3303 14.9525 89.8149 13.9766C89.2994 13.0006 88.5968 12.2282 87.707 11.6593ZM86.7861 19.7831C86.0716 20.502 85.1982 20.8615 84.1658 20.8615C83.0933 20.8615 82.2006 20.508 81.4905 19.8009C80.779 19.0939 80.424 18.216 80.424 17.1673C80.424 16.1022 80.779 15.2169 81.4905 14.5098C82.2021 13.8028 83.0933 13.4492 84.1658 13.4492C85.1982 13.4492 86.0716 13.8087 86.7861 14.5277C87.5021 15.2466 87.8586 16.126 87.8586 17.1673C87.86 18.1937 87.5021 19.0641 86.7861 19.7831Z" fill="white"/>
<path d="M95.5516 5.78448H92.7842V23.2634H95.5516V5.78448Z" fill="white"/>
<path d="M101.006 11.0622H98.2386V23.2634H101.006V11.0622Z" fill="white"/>
<path d="M99.641 5.3938C99.1538 5.3938 98.7349 5.56908 98.3859 5.91816C98.0368 6.26723 97.8615 6.68167 97.8615 7.16146C97.8615 7.65759 98.0353 8.07945 98.3859 8.43001C98.7349 8.77909 99.1538 8.95437 99.641 8.95437C100.128 8.95437 100.55 8.77909 100.904 8.43001C101.257 8.08094 101.434 7.65759 101.434 7.16146C101.434 6.68167 101.257 6.26723 100.904 5.91816C100.549 5.56908 100.128 5.3938 99.641 5.3938Z" fill="white"/>
<path d="M107.881 7.78387H105.089V11.0623H102.774V13.7078H105.089V18.6691C105.089 20.1887 105.495 21.3592 106.309 22.1792C107.122 23.0006 108.215 23.4106 109.587 23.4106C110.156 23.4106 110.657 23.3616 111.086 23.2635V20.6923C110.835 20.7576 110.534 20.7903 110.185 20.7903C109.469 20.7903 108.907 20.6135 108.497 20.26C108.087 19.9065 107.881 19.3598 107.881 18.6201V13.7078H111.086V11.0623H107.881V7.78387Z" fill="white"/>
<path d="M121.763 17.6693C121.763 18.6274 121.49 19.3954 120.94 19.9732C120.392 20.5496 119.667 20.8392 118.764 20.8392C117.87 20.8392 117.151 20.5511 116.606 19.9732C116.061 19.3969 115.789 18.6289 115.789 17.6693V11.0622H113.022V17.9976C113.022 19.7118 113.473 21.0591 114.375 22.038C115.277 23.0169 116.515 23.5071 118.093 23.5071C118.898 23.5071 119.612 23.3199 120.238 22.9456C120.863 22.5727 121.371 22.0365 121.762 21.3368V23.2634H124.553V11.0622H121.762L121.763 17.6693Z" fill="white"/>
<path d="M136.849 13.2071C136.402 12.4347 135.814 11.842 135.082 11.4276C134.351 11.0131 133.501 10.8067 132.534 10.8067C131.469 10.8067 130.49 11.0874 129.598 11.6474C128.703 12.2074 127.996 12.9754 127.476 13.9513C126.956 14.9272 126.696 15.9908 126.696 17.145C126.696 18.2991 126.956 19.3657 127.476 20.3446C127.996 21.3235 128.703 22.0959 129.598 22.6604C130.492 23.2248 131.471 23.5071 132.534 23.5071C133.501 23.5071 134.351 23.3021 135.082 22.8906C135.813 22.4806 136.402 21.8894 136.849 21.117V23.262H139.654V5.78448H136.849V13.2071ZM135.784 19.7965C135.073 20.508 134.189 20.863 133.133 20.863C132.1 20.863 131.227 20.5035 130.513 19.7846C129.797 19.0656 129.44 18.1863 129.44 17.145C129.44 16.1215 129.798 15.2496 130.513 14.5306C131.227 13.8117 132.1 13.4522 133.133 13.4522C134.189 13.4522 135.073 13.8057 135.784 14.5128C136.496 15.2199 136.851 16.0977 136.851 17.1465C136.849 18.2011 136.494 19.0849 135.784 19.7965Z" fill="white"/>
<path d="M154 16.9014C154 15.7398 153.731 14.6896 153.195 13.7508C152.659 12.812 151.937 12.0871 151.031 11.5746C150.125 11.0622 149.126 10.8067 148.038 10.8067C146.883 10.8067 145.826 11.083 144.862 11.6355C143.899 12.1881 143.139 12.9457 142.582 13.9082C142.025 14.8708 141.747 15.9344 141.747 17.096C141.747 18.2902 142.025 19.3791 142.582 20.3624C143.139 21.3458 143.901 22.1152 144.868 22.6722C145.835 23.2293 146.907 23.5071 148.087 23.5071C149.59 23.5071 150.869 23.1164 151.926 22.3365C152.983 21.5567 153.624 20.5243 153.853 19.2409H151.062C150.94 19.7608 150.609 20.1842 150.068 20.508C149.527 20.8333 148.884 20.9952 148.136 20.9952C147.169 20.9952 146.377 20.7352 145.759 20.2153C145.141 19.6955 144.743 18.981 144.565 18.0704H153.926C153.976 17.852 154 17.4614 154 16.9014ZM144.639 15.6937C144.842 14.9451 145.227 14.3643 145.798 13.9498C146.367 13.5354 147.06 13.3274 147.882 13.3274C148.711 13.3274 149.403 13.5458 149.96 13.9795C150.517 14.4148 150.855 14.9852 150.977 15.6922H144.639V15.6937Z" fill="white"/>
<path d="M16.043 0C24.9029 0.000202 32.085 7.18301 32.085 16.0429C32.0848 24.9027 24.9028 32.0847 16.043 32.0849C7.18301 32.0849 0.000202047 24.9029 0 16.0429C0 7.18289 7.18289 0 16.043 0ZM13.917 4.90136C11.9326 4.90762 10.1482 8.09054 8.6084 14.3525C7.51328 14.3396 6.52019 14.3205 5.58594 14.3076H5.27051C5.21261 14.31 5.15457 14.3139 5.09668 14.3203C4.63301 14.4042 4.27234 14.7781 4.20117 15.248C4.11099 15.8536 4.53021 16.4205 5.13574 16.5107L5.14844 16.5234H8.1123C7.84175 17.7731 7.59637 19.017 7.39648 20.209L7.30664 20.7373V20.7627C7.30664 21.0141 7.43567 21.2467 7.64844 21.3818C7.98989 21.6004 8.447 21.4974 8.66602 21.1562L8.68555 21.1748L10.1348 16.5302H17.1182C17.653 18.5532 18.2071 20.6342 18.9414 22.5927C19.3345 23.643 20.2494 26.0901 21.7822 26.1035H21.8018C24.1726 26.1035 25.1007 22.2709 25.7129 19.7324C25.8484 19.1847 25.9577 18.714 26.0674 18.3662L26.1123 18.2246C26.1186 18.1926 26.125 18.1597 26.125 18.1211C26.1248 17.9729 26.0285 17.8376 25.8936 17.7861C25.7067 17.7089 25.4945 17.8055 25.417 17.9922L25.3652 18.1347C25.1654 18.6953 24.979 19.2237 24.8115 19.6875L24.7979 19.7187C23.7672 22.6245 23.2966 23.9521 22.3818 23.9521H22.3184C21.1393 23.9521 20.0367 19.1715 19.6182 17.374C19.5471 17.0648 19.4771 16.7745 19.4189 16.5234H27.0215C27.1631 16.5234 27.2988 16.4911 27.4209 16.4267L27.4521 16.4072L27.5107 16.3691C27.5299 16.3562 27.5492 16.3429 27.5684 16.3301C27.723 16.2012 27.833 16.027 27.8779 15.8467C27.9745 15.3897 27.672 14.939 27.2148 14.8486H27.208L27.1953 14.8418H27.1826C27.1378 14.8355 27.0986 14.8291 27.0537 14.8291L26.9375 14.8164C24.2511 14.6231 21.4806 14.5457 18.8906 14.4941L18.8838 14.4746C17.6212 9.73946 16.0431 4.90138 13.917 4.90136ZM13.833 7.04003C13.949 7.04003 14.0456 7.10475 14.1357 7.2207C14.3544 7.56197 14.7414 8.34144 15.3145 10.0742C15.7076 11.2661 16.1331 12.7353 16.584 14.4492C14.8769 14.4234 13.1439 14.4042 11.4688 14.3847L10.6182 14.3779C11.5782 10.6285 12.7446 7.78712 13.6016 7.11718C13.6725 7.07242 13.7496 7.04665 13.833 7.04003Z" fill="white"/>
</svg>
