<svg width="147" height="17" viewBox="0 0 147 17" fill="none" xmlns="http://www.w3.org/2000/svg">
<path d="M29.1146 4.03283C28.455 2.81276 27.4718 1.79291 26.2704 1.0825C25.069 0.372104 23.6946 -0.00208771 22.2943 8.76113e-06H0.733565C0.31795 8.76113e-06 0 0.337883 0 0.748432C0 0.941807 0.0731414 1.13518 0.220285 1.25588L4.91338 5.91601C5.329 6.32613 5.89133 6.56796 6.47818 6.56796H21.683C22.7586 6.56796 23.6634 7.41285 23.6634 8.47535C23.6634 9.53785 22.8076 10.4312 21.7325 10.4312H11.2448C10.8292 10.4312 10.5117 10.7695 10.5117 11.1801C10.5117 11.373 10.5848 11.5664 10.7315 11.6871L15.4006 16.3476C15.8162 16.7582 16.3785 16.9996 16.9653 16.9996H21.7075C27.8927 17 32.5617 10.4805 29.1146 4.03283Z" fill="black"/>
<path fill-rule="evenodd" clip-rule="evenodd" d="M41.3363 2.46289C44.9297 2.46289 47.6433 5.14337 47.6433 8.50002C47.6433 11.8567 44.9297 14.5609 41.3359 14.5609H37.0825C37.005 14.56 36.931 14.5293 36.8761 14.4752C36.8213 14.4211 36.7901 14.348 36.7891 14.2715V2.77697C36.7899 2.70037 36.8211 2.62715 36.876 2.57299C36.9308 2.51882 37.0049 2.488 37.0825 2.48712L41.3363 2.46289ZM39.4045 4.78127V12.2188H41.3354C43.389 12.1945 45.0269 10.5285 45.0024 8.50002C45.0515 6.51952 43.4626 4.85352 41.4576 4.78127H39.4045ZM63.5081 8.50002C63.5081 5.07112 60.6237 2.19727 56.8591 2.19727C53.119 2.19727 50.2342 5.04689 50.2342 8.50002C50.2342 11.9531 53.0944 14.8028 56.8591 14.8028C60.6237 14.8028 63.5081 11.9531 63.5081 8.50002ZM60.8926 8.52425C60.8926 10.7215 59.0839 12.4844 56.8591 12.4844C54.6588 12.4602 52.8501 10.6977 52.8501 8.50002C52.8501 6.30277 54.6588 4.53987 56.8836 4.53987C59.108 4.53987 60.8926 6.32657 60.8926 8.52425ZM72.6995 2.19727C76.4641 2.19727 79.3489 5.04689 79.3489 8.50002C79.3489 11.9531 76.4405 14.8028 72.6995 14.8028C68.9593 14.8028 66.0508 11.9531 66.0508 8.50002C66.0508 5.04689 68.9352 2.19727 72.6995 2.19727ZM72.6995 12.4844C74.9246 12.4844 76.7087 10.6977 76.7087 8.50002C76.7087 6.30277 74.9002 4.53987 72.6751 4.53987C70.4509 4.53987 68.6663 6.32657 68.6663 8.50002C68.6663 10.6973 70.4754 12.4844 72.6995 12.4844ZM83.1136 2.48712C83.0361 2.488 82.9623 2.51882 82.907 2.57299C82.8525 2.62715 82.821 2.70037 82.8203 2.77697L82.8698 14.2473C82.8698 14.3918 82.9917 14.5367 83.163 14.5367H85.1429C85.2203 14.5357 85.2942 14.5049 85.3487 14.4509C85.4039 14.3968 85.4347 14.3237 85.4362 14.2473V10.3352H87.7093L89.9824 14.416C90.0068 14.4663 90.0455 14.5088 90.0928 14.5387C90.1402 14.5687 90.1954 14.5847 90.252 14.5852H92.3294C92.3767 14.5852 92.4233 14.5852 92.4628 14.5728C92.4864 14.5661 92.508 14.5539 92.5252 14.5371C92.6478 14.4402 92.6965 14.2715 92.5983 14.1266L90.252 10.0211C91.5965 9.34535 92.452 7.96877 92.4276 6.47149C92.4276 4.25002 90.6672 2.48712 88.2227 2.48712H83.1136ZM85.4362 4.78127H88.2715C89.152 4.80549 89.8361 5.55392 89.8118 6.42347V6.47149C89.763 7.34105 89.0294 8.01722 88.1496 7.96877H85.4362V4.78127ZM101.18 2.51177C104.773 2.51177 107.486 5.19182 107.486 8.57227C107.486 11.9531 104.773 14.6336 101.18 14.6336H96.9502C96.8728 14.6327 96.7982 14.6019 96.7437 14.5478C96.6885 14.4936 96.6576 14.4203 96.6569 14.3438V2.82542C96.6569 2.65627 96.8032 2.53557 96.9502 2.53557L101.18 2.51177ZM99.2728 4.85352V12.291H101.203C103.257 12.2672 104.895 10.6008 104.87 8.57227C104.895 7.61609 104.536 6.68904 103.872 5.99268C103.209 5.29631 102.293 4.88692 101.326 4.85352H99.2728ZM112.155 14.3438L113.133 11.6875V11.7117H117.875L118.853 14.368C118.878 14.5125 119 14.5852 119.146 14.5852H121.25C121.27 14.5855 121.292 14.5847 121.313 14.583C121.335 14.5811 121.356 14.5765 121.377 14.5694L121.396 14.5609C121.542 14.4887 121.616 14.2953 121.542 14.1504L116.971 2.68049C116.947 2.55979 116.825 2.48712 116.678 2.48712H114.306C114.184 2.46289 114.062 2.55937 114.013 2.68049L109.442 14.1504C109.417 14.1988 109.417 14.2473 109.417 14.2953C109.442 14.4645 109.589 14.5852 109.76 14.5609H111.862C111.984 14.5609 112.106 14.4645 112.155 14.3438ZM113.989 9.46605L115.48 5.48167L116.971 9.46605H113.989Z" fill="black"/>
<path d="M123.988 5.72304C123.988 3.81521 125.65 2.17344 128.266 2.17344C129.684 2.14921 131.029 2.65624 132.08 3.59804C132.136 3.65532 132.17 3.7309 132.174 3.81081C132.179 3.89073 132.154 3.96958 132.105 4.03281L132.08 4.05661L130.907 5.21601C130.877 5.24467 130.844 5.26741 130.806 5.28293C130.768 5.29846 130.727 5.30644 130.686 5.30644C130.646 5.30644 130.605 5.29846 130.567 5.28293C130.529 5.26741 130.496 5.24467 130.466 5.21601C129.904 4.70856 129.195 4.44336 128.438 4.41914C127.386 4.41914 126.604 5.02264 126.604 5.72304C126.604 6.66356 127.693 6.98146 128.96 7.35079C130.717 7.86334 132.813 8.47534 132.813 10.9871C132.813 13.1843 131.127 14.8265 128.169 14.8265C126.506 14.8508 124.918 14.223 123.744 13.0641C123.688 13.0068 123.654 12.9311 123.649 12.8512C123.645 12.7713 123.67 12.6925 123.719 12.6293L123.744 12.6051L124.868 11.4941C124.897 11.4654 124.931 11.4426 124.969 11.427C125.007 11.4114 125.047 11.4034 125.088 11.4034C125.129 11.4034 125.17 11.4114 125.207 11.427C125.245 11.4426 125.28 11.4654 125.308 11.4941C126.018 12.1703 126.995 12.5566 127.973 12.5808C129.293 12.5808 130.149 11.8804 130.149 11.0113C130.159 10.0712 129.081 9.75331 127.825 9.38229C126.079 8.86719 123.988 8.25009 123.988 5.72304ZM144.083 7.29299V2.75229C144.083 2.58356 144.205 2.46244 144.376 2.46244H146.357C146.434 2.46343 146.508 2.4943 146.562 2.54846C146.618 2.60261 146.649 2.67576 146.649 2.75229V14.2226C146.649 14.2991 146.618 14.3723 146.562 14.4265C146.508 14.4806 146.434 14.5115 146.357 14.5125H144.376C144.299 14.5116 144.224 14.4807 144.17 14.4266C144.114 14.3724 144.084 14.2992 144.083 14.2226V9.61094H138.827V14.223C138.827 14.3675 138.705 14.5129 138.533 14.5129H136.554C136.476 14.512 136.402 14.4812 136.347 14.427C136.293 14.3728 136.261 14.2996 136.26 14.223V2.75271C136.261 2.67611 136.293 2.6029 136.347 2.54873C136.402 2.49457 136.476 2.46375 136.554 2.46286H138.533C138.68 2.46286 138.827 2.58399 138.827 2.75271V7.29299H144.083Z" fill="black"/>
</svg>
