<svg width="84" height="23" viewBox="0 0 84 23" fill="none" xmlns="http://www.w3.org/2000/svg">
<path d="M9.08557 9.78218C8.90448 9.78218 8.75812 9.93004 8.75812 10.1131V13.5866C8.75812 13.7697 8.90448 13.9199 9.08557 13.9199H11.83V18.2359C11.83 18.2359 11.2141 18.4472 9.51082 18.4472C7.50096 18.4472 4.69391 17.7056 4.69391 11.472C4.69391 5.23845 7.61714 4.41702 10.3613 4.41702C12.5005 4.41702 13.5442 4.75978 14.2059 4.97706C14.2787 5.00098 14.347 5.02338 14.4115 5.04364C14.6161 5.10701 14.8043 4.90048 14.8043 4.71741L15.5896 1.36126C15.5896 1.27442 15.5617 1.17114 15.4642 1.10307C15.1993 0.912977 13.5866 2.04729e-06 9.51082 2.04729e-06C4.81713 -0.00234721 0 2.01604 0 11.7137C0 21.4114 5.51424 22.8571 10.1616 22.8571C14.0096 22.8571 16.3426 21.1955 16.3426 21.1955C16.3623 21.1843 16.3784 21.1696 16.3916 21.1527C16.41 21.1292 16.4229 21.1016 16.4315 21.0736C16.4465 21.0249 16.4495 20.9751 16.4495 20.9444V10.1131C16.4495 9.93004 16.3031 9.78218 16.1218 9.78218H9.08557Z" fill="black"/>
<path d="M52.3667 1.15942C52.3667 0.974 52.2228 0.82614 52.0415 0.82614H48.0819C47.9006 0.82614 47.7543 0.976349 47.7543 1.15942V8.88798H41.5826V1.15942C41.5826 0.974 41.4362 0.82614 41.2549 0.82614H37.2953C37.114 0.82614 36.9677 0.976349 36.9677 1.15942V22.0897C36.9677 22.2751 37.114 22.4253 37.2953 22.4253H41.2549C41.4362 22.4253 41.5826 22.2751 41.5826 22.0897V13.1383H47.7543L47.7427 22.0897C47.7427 22.2751 47.889 22.4253 48.0704 22.4253H52.0392C52.2203 22.4253 52.3644 22.2751 52.3667 22.0897V1.15942Z" fill="black"/>
<path d="M21.0388 1.30023C22.4491 1.30023 23.5926 2.46432 23.5926 3.90536C23.5926 5.34406 22.4491 6.51049 21.0388 6.51049C19.6282 6.51049 18.485 5.34641 18.485 3.90536C18.485 2.46432 19.6282 1.30023 21.0388 1.30023Z" fill="black"/>
<path d="M23.3089 8.01491C23.3089 7.83184 23.1625 7.68163 22.9812 7.68163H19.0334C18.8521 7.68163 18.6894 7.8694 18.6894 8.05479V21.8972C18.6894 22.3032 18.9404 22.4253 19.2658 22.4253H22.8233C23.2136 22.4253 23.3089 22.2328 23.3089 21.8902V8.01491Z" fill="black"/>
<path d="M63.4857 7.71214H67.4129C67.594 7.71214 67.7428 7.86235 67.7428 8.04777V22.0967C67.7428 22.2798 67.594 22.43 67.4151 22.43L64.8777 22.4417C64.7522 22.4417 64.6337 22.3502 64.5895 22.261C64.5682 22.2178 64.5337 22.0167 64.5037 21.8206C64.4719 21.6119 64.4454 21.4091 64.4454 21.4091C64.4454 21.4091 62.3541 22.8548 59.7633 22.8548C56.6029 22.8548 54.3071 21.8362 54.3071 17.675V8.04777C54.3071 7.86235 54.4558 7.71214 54.6348 7.71214H58.6223C58.8034 7.71214 58.95 7.86235 58.95 8.04777V16.9968C58.95 18.3979 59.3287 19.048 60.7438 19.048C62.1589 19.048 63.158 18.3111 63.158 18.3111V8.04777C63.158 7.86235 63.3044 7.71214 63.4857 7.71214Z" fill="black"/>
<path fill-rule="evenodd" clip-rule="evenodd" d="M78.1575 7.2404C75.9245 7.2404 74.4071 8.24726 74.4071 8.24726V1.15942C74.4071 1.04597 74.3522 0.946583 74.2682 0.886533C74.2149 0.848429 74.1498 0.82614 74.0794 0.82614H70.1083C69.927 0.82614 69.7806 0.976349 69.7806 1.15942V22.0897C69.7806 22.2751 69.927 22.4253 70.1083 22.4253H72.8643C72.9872 22.4253 73.0826 22.3596 73.1522 22.2469C73.2196 22.1343 73.3197 21.2823 73.3197 21.2823C73.3197 21.2823 74.9438 22.836 78.0181 22.836C81.6269 22.836 83.6971 20.9866 83.6971 14.5348C83.6971 8.08298 80.3906 7.2404 78.1575 7.2404ZM76.6076 19.0339C75.2435 18.9917 74.3211 18.3674 74.3211 18.3674V11.7395C74.3211 11.7395 75.232 11.1739 76.3521 11.073C77.7672 10.9439 79.1312 11.3758 79.1312 14.7859C79.1312 18.3815 78.5153 19.0902 76.6098 19.0339H76.6076Z" fill="black"/>
<path d="M31.7207 7.67693H34.6905C34.8718 7.67693 35.0182 7.82479 35.0182 8.01021V11.2349C35.0182 11.418 34.8718 11.5682 34.6905 11.5682H31.7207V17.4521C31.7207 18.3392 32.2157 19.0245 33.675 19.0245C33.9564 19.0245 34.2323 18.9977 34.4434 18.9771C34.5741 18.9644 34.6796 18.9541 34.7463 18.9541C34.9206 18.9541 35.074 19.102 35.0715 19.2874V22.1178C35.0715 22.2516 35.0041 22.3737 34.8856 22.4182C34.6905 22.491 33.5123 22.8102 32.5272 22.8102C30.373 22.8102 27.178 22.3596 27.178 17.7595V11.5682H25.103C24.9217 11.5682 24.7753 11.4204 24.7753 11.2349V8.66033C24.7753 8.50777 24.8751 8.38102 25.0122 8.34114C25.1495 8.30123 27.178 7.80603 27.178 7.80603V3.71055C27.178 3.55802 27.2617 3.4876 27.4196 3.4876H31.4675C31.6395 3.4876 31.7162 3.56269 31.7162 3.7129L31.7207 7.67693Z" fill="black"/>
</svg>
