<svg width="112" height="24" viewBox="0 0 112 24" fill="none" xmlns="http://www.w3.org/2000/svg">
<path d="M0 2C0 0.895431 0.895437 0 2 0H10C11.1046 0 12 0.895431 12 2V4C12 4.55228 11.5523 5 11 5H0.999997C0.447715 5 0 4.55228 0 4V2Z" fill="black"/>
<path d="M12 19.9999C12 19.4475 12.4477 18.9998 13 18.9998H23C23.5523 18.9998 24 19.4475 24 19.9999V21.9998C24 23.1044 23.1046 23.9998 22 23.9998H14C12.8954 23.9998 12 23.1044 12 21.9998V19.9999Z" fill="black"/>
<path d="M0 8.5C0 7.94772 0.447715 7.5 0.999997 7.5H22C23.1046 7.5 24 8.39543 24 9.49997V15.5C24 16.0523 23.5523 16.5 23 16.5H2C0.895427 16.5 0 15.6046 0 14.5V8.5Z" fill="black"/>
<path d="M37.326 14.7412H39.6376L43.9745 22.0001H49.2305L44.4257 14.2457C47.0675 13.3377 48.6085 11.3014 48.6085 8.35684C48.6085 4.2291 45.7191 2.00012 41.0685 2.00012H32.7305V22.0001H37.326V14.7412ZM37.326 10.9986V5.8802H40.8208C42.9948 5.8802 44.0955 6.81582 44.0955 8.4394C44.0955 10.0354 42.9948 10.9986 40.8208 10.9986H37.326Z" fill="black"/>
<path d="M57.0935 22.0609C59.983 22.0609 62.6248 20.6025 63.698 17.8231L60.0105 16.6398C59.5977 17.9057 58.5244 18.5661 57.1486 18.5661C55.4699 18.5661 54.2866 17.4379 53.984 15.4565H63.808V14.3008C63.808 10.2005 61.4139 6.95343 57.011 6.95343C52.8281 6.95343 49.7461 10.2005 49.7461 14.4934C49.7461 19.0064 52.7182 22.0609 57.0935 22.0609ZM56.956 10.3657C58.5796 10.3657 59.4326 11.4664 59.4602 12.7597H54.1216C54.5619 11.1637 55.6076 10.3657 56.956 10.3657Z" fill="black"/>
<path d="M66.3046 17.9999C66.3046 20.9719 67.8731 22.0176 71.0102 22.0176C72.0559 22.0176 72.8815 21.935 73.652 21.8249V18.2201C73.1566 18.2752 72.909 18.3026 72.3861 18.3026C71.2854 18.3026 70.6525 18.0826 70.6525 16.7497V10.8883H73.4869V7.25595H70.6525V3.23828H66.3046V7.25595H64.4609V10.8883H66.3046V17.9999Z" fill="black"/>
<path d="M89.3737 14.4596C89.3737 9.94659 86.3738 6.89209 82.1087 6.89209C77.8159 6.89209 74.8438 9.94659 74.8438 14.4596C74.8438 18.9727 77.8159 21.9997 82.1087 21.9997C86.3738 21.9997 89.3737 18.9727 89.3737 14.4596ZM79.2193 14.4596C79.2193 11.928 80.3475 10.4971 82.1087 10.4971C83.8699 10.4971 84.9981 11.928 84.9981 14.4596C84.9981 16.9914 83.8699 18.4222 82.1087 18.4222C80.3475 18.4222 79.2193 16.9914 79.2193 14.4596Z" fill="black"/>
<path d="M105.233 14.4601C105.233 9.94708 102.234 6.89258 97.9682 6.89258C93.6748 6.89258 90.7031 9.94708 90.7031 14.4601C90.7031 18.9731 93.6748 22.0001 97.9682 22.0001C102.234 22.0001 105.233 18.9731 105.233 14.4601ZM95.0788 14.4601C95.0788 11.9284 96.2068 10.4975 97.9682 10.4975C99.7287 10.4975 100.858 11.9284 100.858 14.4601C100.858 16.9918 99.7287 18.4227 97.9682 18.4227C96.2068 18.4227 95.0788 16.9918 95.0788 14.4601Z" fill="black"/>
<path d="M111.73 2H107.328V22H111.73V2Z" fill="black"/>
</svg>
