<svg width="148" height="37" viewBox="0 0 148 37" fill="none" xmlns="http://www.w3.org/2000/svg">
<path d="M31.1439 7.36723L19.4641 0.688235C17.859 -0.229412 15.8807 -0.229412 14.2757 0.688235L2.5925 7.36723C0.98746 8.28487 0 9.98235 0 11.8176V25.179C0 27.0143 0.98746 28.7118 2.5925 29.6294L14.2723 36.3118C15.8773 37.2294 17.8556 37.2294 19.4607 36.3118L31.1405 29.6294C32.7455 28.7118 33.733 27.0143 33.733 25.179V11.8176C33.733 9.98235 32.7455 8.28487 31.1405 7.36723H31.1439ZM24.5812 15.263L21.8666 16.9101C20.5873 17.6899 20.0579 18.016 19.5048 18.6378C18.9619 19.2529 18.5479 19.9756 18.273 20.7992C18.1441 21.179 18.0898 21.5824 18.0898 21.9857L18.083 26.2849C18.083 26.5773 17.8421 26.816 17.5469 26.816H16.1929C15.8977 26.816 15.6568 26.5773 15.6568 26.2849L15.65 21.9857C15.65 21.5824 15.5923 21.179 15.4668 20.7992C15.1919 19.9756 14.7779 19.2529 14.235 18.6378C13.6785 18.016 13.1491 17.6899 11.8698 16.9101L9.15857 15.263C8.90407 15.1084 8.82603 14.7824 8.98212 14.5303L9.6879 13.3874C9.844 13.1387 10.1766 13.058 10.4277 13.2126L14.0178 15.3975C14.8627 15.9118 15.8366 16.1874 16.8275 16.1874H16.9123C17.9032 16.1874 18.877 15.9118 19.722 15.3975L23.3121 13.2126C23.5632 13.058 23.8924 13.1387 24.0485 13.3874L24.7577 14.5303C24.9104 14.7824 24.8323 15.1084 24.5812 15.263Z" fill="white"/>
<path d="M53.2991 13.5225H44.9006C44.7988 13.5225 44.7344 13.5897 44.7344 13.6872V15.5225C44.7344 15.6233 44.8022 15.6872 44.9006 15.6872H47.7714C47.8393 15.6872 47.8698 15.7208 47.8698 15.788V24.6048C47.8698 24.7057 47.9377 24.7695 48.0361 24.7695H50.1569C50.2553 24.7695 50.3232 24.7023 50.3232 24.6048V15.788C50.3232 15.7208 50.3571 15.6872 50.4216 15.6872H53.2923C53.3907 15.6872 53.4586 15.6199 53.4586 15.5225V13.6872C53.4586 13.5863 53.3907 13.5225 53.2923 13.5225H53.2991Z" fill="white"/>
<path d="M63.2042 13.5223H55.9255C55.8237 13.5223 55.7593 13.5896 55.7593 13.6871V24.6047C55.7593 24.7055 55.8271 24.7694 55.9255 24.7694H63.2042C63.3026 24.7694 63.3705 24.7022 63.3705 24.6047V22.8333C63.3705 22.7324 63.3026 22.6686 63.2042 22.6686H58.3111C58.2432 22.6686 58.2092 22.635 58.2092 22.5677V20.235C58.2092 20.1677 58.2432 20.1341 58.3111 20.1341H62.3864C62.4882 20.1341 62.5527 20.0669 62.5527 19.9694V18.2148C62.5527 18.1139 62.4848 18.0501 62.3864 18.0501H58.3111C58.2432 18.0501 58.2092 18.0165 58.2092 17.9492V15.7173C58.2092 15.6501 58.2432 15.6165 58.3111 15.6165H63.2042C63.3026 15.6165 63.3705 15.5492 63.3705 15.4518V13.6803C63.3705 13.5795 63.3026 13.5156 63.2042 13.5156V13.5223Z" fill="white"/>
<path d="M71.7181 13.6872C71.6842 13.5863 71.6197 13.5225 71.501 13.5225H69.3971C69.2783 13.5225 69.2139 13.5897 69.1799 13.6872L65.2708 24.6048C65.2369 24.7057 65.2708 24.7695 65.3862 24.7695H67.5749C67.6903 24.7695 67.7581 24.7191 67.7921 24.6048L68.4266 22.6351H72.4002L73.0517 24.6048C73.0856 24.7191 73.1501 24.7695 73.2689 24.7695H75.4406C75.556 24.7695 75.5899 24.7023 75.556 24.6048L71.7147 13.6872H71.7181ZM69.1121 20.5678L70.3981 16.6317H70.449L71.7351 20.5678H69.1121Z" fill="white"/>
<path d="M88.0467 13.5225H86.0922C85.9598 13.5225 85.875 13.5729 85.8241 13.6872L83.0009 20.104H82.933L80.0622 13.6872C80.0113 13.5729 79.9299 13.5225 79.7942 13.5225H77.8057C77.7073 13.5225 77.6394 13.5897 77.6394 13.6872V24.6048C77.6394 24.7057 77.7073 24.7695 77.8057 24.7695H79.6924C79.7942 24.7695 79.8586 24.7023 79.8586 24.6048V18.2687H79.9265L82.0304 23.0149C82.0982 23.1628 82.1966 23.23 82.3493 23.23H83.4997C83.649 23.23 83.7508 23.1628 83.8186 23.0149L85.9225 18.2687H85.9904V24.6048C85.9904 24.7057 86.0582 24.7695 86.1566 24.7695H88.0433C88.1417 24.7695 88.2096 24.7023 88.2096 24.6048V13.6872C88.2096 13.5863 88.1417 13.5225 88.0433 13.5225H88.0467Z" fill="white"/>
<path d="M102.238 13.5225C102.122 13.5225 102.054 13.5729 102.037 13.6872L100.466 20.7494H100.432L98.4304 13.6872C98.3965 13.5863 98.3286 13.5225 98.2302 13.5225H96.7778C96.6591 13.5225 96.5946 13.5897 96.5607 13.6872L94.6231 20.7494H94.5892L92.9536 13.6872C92.9366 13.5863 92.8687 13.5225 92.7534 13.5225H90.5986C90.4832 13.5225 90.4493 13.5897 90.4663 13.6872L93.4049 24.6048C93.4388 24.7057 93.5067 24.7695 93.6051 24.7695H95.2746C95.39 24.7695 95.4578 24.7023 95.4918 24.6048L97.4803 17.6065H97.5142L99.4857 24.6048C99.52 24.7057 99.584 24.7695 99.703 24.7695H101.372C101.488 24.7695 101.573 24.7023 101.59 24.6048L104.511 13.6872C104.528 13.5863 104.494 13.5225 104.379 13.5225H102.238Z" fill="white"/>
<path d="M110.592 13.3408C108.603 13.3408 107.036 14.2517 106.452 16.0702C106.201 16.8467 106.136 17.4753 106.136 19.1459C106.136 20.8165 106.204 21.445 106.452 22.2215C107.036 24.04 108.607 24.9509 110.592 24.9509C112.577 24.9509 114.148 24.04 114.732 22.2215C114.983 21.445 115.051 20.8165 115.051 19.1459C115.051 17.4753 114.983 16.8467 114.732 16.0702C114.148 14.2517 112.577 13.3408 110.592 13.3408ZM112.38 21.5627C112.129 22.3391 111.528 22.803 110.592 22.803C109.655 22.803 109.055 22.3391 108.804 21.5627C108.671 21.166 108.62 20.6215 108.62 19.1492C108.62 17.677 108.671 17.1324 108.804 16.7358C109.055 15.9593 109.655 15.4954 110.592 15.4954C111.528 15.4954 112.129 15.9593 112.38 16.7358C112.513 17.1324 112.563 17.677 112.563 19.1492C112.563 20.6215 112.513 21.166 112.38 21.5627Z" fill="white"/>
<path d="M124.121 20.1376C125.373 19.593 126.14 18.4502 126.14 17.0115C126.14 14.9611 124.603 13.5225 122.282 13.5225H117.755C117.657 13.5225 117.589 13.5897 117.589 13.6872V24.6048C117.589 24.7057 117.657 24.7695 117.755 24.7695H119.876C119.974 24.7695 120.042 24.7023 120.042 24.6048V20.5846C120.042 20.5174 120.076 20.4838 120.141 20.4838H121.661L123.615 24.6015C123.666 24.7157 123.717 24.7662 123.867 24.7662H126.238C126.357 24.7662 126.405 24.6653 126.357 24.5678L124.121 20.1342V20.1376ZM122.149 18.4166H120.147C120.08 18.4166 120.049 18.383 120.049 18.3157V15.7174C120.049 15.6502 120.083 15.6166 120.147 15.6166H122.149C123.086 15.6166 123.687 16.1611 123.687 17.0048C123.687 17.8485 123.086 18.4099 122.149 18.4099V18.4166Z" fill="white"/>
<path d="M134.274 18.0065L137.715 13.7376C137.8 13.6367 137.749 13.5225 137.647 13.5225H135.224C135.092 13.5225 135.024 13.5561 134.939 13.6704L131.166 18.551V13.6872C131.166 13.5863 131.098 13.5225 131 13.5225H128.879C128.781 13.5225 128.713 13.5897 128.713 13.6872V24.6048C128.713 24.7057 128.781 24.7695 128.879 24.7695H131C131.098 24.7695 131.166 24.7023 131.166 24.6048V21.7443L132.652 19.8922L135.224 24.6216C135.292 24.7359 135.34 24.7695 135.476 24.7695H137.929C138.044 24.7695 138.095 24.6855 138.027 24.5712L134.271 18.0031L134.274 18.0065Z" fill="white"/>
<path d="M144.43 18.0064L143.83 17.9223C142.527 17.7408 142.058 17.3274 142.058 16.682C142.058 15.9694 142.577 15.4585 143.578 15.4585C144.515 15.4585 145.35 15.7576 146.215 16.319C146.3 16.3694 146.381 16.3526 146.449 16.2686L147.467 14.7627C147.552 14.6484 147.535 14.5812 147.433 14.5139C146.48 13.7845 145.078 13.3408 143.575 13.3408C141.122 13.3408 139.551 14.7122 139.551 16.7828C139.551 18.8534 140.837 19.8417 143.141 20.1576L143.741 20.2417C145.095 20.4232 145.496 20.8366 145.496 21.4988C145.496 22.2921 144.827 22.84 143.643 22.84C142.459 22.84 141.424 22.2786 140.67 21.6837C140.586 21.6165 140.487 21.6165 140.419 21.7005L139.15 23.1391C139.065 23.24 139.099 23.3543 139.167 23.4215C140.053 24.2652 141.773 24.961 143.541 24.961C146.48 24.961 148 23.4551 148 21.4215C148 19.3879 146.765 18.3291 144.427 18.0131L144.43 18.0064Z" fill="white"/>
</svg>
